<svg width="44" height="20" viewBox="0 0 44 20" fill="none" xmlns="http://www.w3.org/2000/svg">
<path d="M43.1283 9.44187L38.9517 18.1006C38.6132 18.8013 37.7719 19.0947 37.0716 18.7574C36.3709 18.4189 36.0774 17.5777 36.4148 16.8774L36.4153 16.8774L39.1998 11.1025C31.7066 14.6351 25.277 15.5578 19.9613 15.0391C13.7141 14.4337 9.05977 11.8578 5.99302 9.44145C2.92041 7.02273 1.40797 4.76242 1.34856 4.6763C0.918148 4.02939 1.0929 3.15533 1.73936 2.7234C2.01991 2.53646 2.34412 2.46353 2.65561 2.49379C3.06173 2.53324 3.44806 2.74837 3.69213 3.11479L3.69207 3.11538L3.69786 3.12308C3.81103 3.29026 5.24415 5.32895 7.99574 7.43264C10.7516 9.53736 14.8001 11.7075 20.2332 12.2359C25.0215 12.6996 30.9251 11.8986 38.0581 8.52707L32.4057 5.74261C31.7085 5.39881 31.4213 4.55427 31.764 3.85635C32.0313 3.31589 32.5986 3.0223 33.1647 3.07729C33.3288 3.09324 33.4927 3.13921 33.6504 3.21639L42.4825 7.56779C43.1764 7.90919 43.4643 8.74606 43.1283 9.44195L43.1283 9.44187Z" fill="#E37D38"/>
</svg>
