<svg xmlns="http://www.w3.org/2000/svg" xmlns:xlink="http://www.w3.org/1999/xlink" width="362" height="324"><defs><linearGradient id="a" x1="0%" x2="100.007%" y1="49.822%" y2="49.822%"><stop offset="0%" stop-color="#EE8D27"/><stop offset="100%" stop-color="#EE9F2E"/></linearGradient><linearGradient id="b" x1="5.975%" x2="100.005%" y1="49.989%" y2="49.989%"><stop offset="0%" stop-color="#625750"/><stop offset="100%" stop-color="#73654F"/></linearGradient><linearGradient id="c" x1="8.127%" x2="104.11%" y1="50.04%" y2="50.04%"><stop offset="0%" stop-color="#EE9F2E"/><stop offset="100%" stop-color="#EE8E27"/></linearGradient><linearGradient id="d" x1="46.096%" x2="50.822%" y1="43.186%" y2="74.677%"><stop offset="0%" stop-color="#736550"/><stop offset="100%" stop-color="#716351"/></linearGradient><linearGradient id="e" x1="46.096%" x2="50.899%" y1="44.194%" y2="71.462%"><stop offset="0%" stop-color="#736550"/><stop offset="98.403%" stop-color="#716351"/></linearGradient><linearGradient id="f" x1="52.59%" x2="35.669%" y1="67.21%" y2="10.061%"><stop offset="0%" stop-color="#ED8529"/><stop offset="100%" stop-color="#EEAB33"/></linearGradient><linearGradient id="g" x1="0%" x2="100%" y1="50.03%" y2="50.03%"><stop offset="0%" stop-color="#D45A5F"/><stop offset="100%" stop-color="#DC5055"/></linearGradient><linearGradient id="h" x1="100.05%" x2=".05%" y1="50%" y2="50%"><stop offset="0%" stop-color="#008BEC"/><stop offset="100%" stop-color="#0077EC"/></linearGradient><linearGradient id="j" x1="0%" x2="100%" y1="50.03%" y2="50.03%"><stop offset="0%" stop-color="#D45A5F"/><stop offset="100%" stop-color="#DC5055"/></linearGradient><linearGradient id="k" x1="-.07%" x2="99.93%" y1="50%" y2="50%"><stop offset="0%" stop-color="#ECA234"/><stop offset="100%" stop-color="#E89135"/></linearGradient><rect id="i" width="25" height="4" x="320" y="292" rx=".64"/></defs><g fill="none" fill-rule="evenodd"><path fill="#E37D37" fill-rule="nonzero" d="M233.649 255.7a12.067 12.067 0 00-4.145-.7 12.52 12.52 0 00-11.995 9.08l-30.189-.088h-16.74a2.566 2.566 0 00-2.58 2.502v8.041c0 1.19.962 2.157 2.154 2.164h.388c1.191 0 2.16-.961 2.166-2.151v-3.752h2.717v3.752c0 1.19.962 2.156 2.154 2.163h.5c1.192 0 2.16-.96 2.167-2.15v-3.753h2.742v3.64a2.24 2.24 0 001.928 2.276 2.155 2.155 0 002.392-2.139v-3.752l30.176.1a12.247 12.247 0 002.191 4.34 12.531 12.531 0 0013.914 4.033A12.507 12.507 0 00242 267.525a12.505 12.505 0 00-8.351-11.824zm3.831 14.558a3.233 3.233 0 01-4.23-.546 3.221 3.221 0 010-4.26 3.232 3.232 0 014.23-.547 3.188 3.188 0 011.403 2.677 3.226 3.226 0 01-1.39 2.676h-.013z" opacity=".322"/><path fill="#ECC2A6" fill-rule="nonzero" d="M241.98 267.062a12.25 12.25 0 01-7.99 12.18 12.255 12.255 0 01-13.99-4.071c4.055 1.972 8.711 2.866 13.024.465a8.573 8.573 0 004.399-5.377 3.162 3.162 0 001.409-2.622 3.125 3.125 0 00-1.373-2.621c-.723-3.202-2-6.253-3.773-9.016a12.398 12.398 0 018.295 11.062z"/><path fill="#E37D37" fill-rule="nonzero" d="M361.688 47.117C358.89 21.515 337.96 1.652 312.142.1a51.785 51.785 0 00-3.136-.1c-1.05 0-2.111 0-3.135.1-25.814 1.567-46.741 21.42-49.559 47.017a52.984 52.984 0 00-.312 5.66v73.1c0 .831.332 1.627.923 2.213a3.14 3.14 0 002.225.91h99.704a3.143 3.143 0 002.225-.91c.59-.586.923-1.382.923-2.212V52.777a50.026 50.026 0 00-.312-5.66zM312.142 6.381a46.71 46.71 0 0133.055 17.028 45.763 45.763 0 012.386 3.172 44.48 44.48 0 012.1 3.359 59.443 59.443 0 011.823 3.545c.575 1.206 1.062 2.487 1.512 3.731a45.262 45.262 0 011.674 5.859c.287 1.318.524 2.674.687 4.055h-43.237V6.38zm0 46.993h43.612v30.288h-43.612V53.374zm-44.124-22.875c7.654-13.947 21.927-23.04 37.853-24.118v40.736h-43.237a45.81 45.81 0 015.384-16.618zm-5.722 22.875h43.575v30.288h-43.575V53.374zm43.575 69.37h-43.575V89.917h43.575v32.825zm49.858 0h-43.587V89.917h43.612l-.025 32.825z" opacity=".311"/><path fill="#DDDDD7" fill-rule="nonzero" d="M312 90h44v33h-44zm0-36h44v30h-44zm43-7h-43V6c22.232 1.528 40.265 18.722 43 41zm-93 43h44v33h-44zm0-36h44v30h-44zm44-48v41h-43v-.163a46.522 46.522 0 012.845-11.267 47.014 47.014 0 0118.848-22.722A45.812 45.812 0 01306 6z"/><path fill="#CCCCCA" fill-rule="nonzero" d="M269 47h-6c.669-5.965 2.387-11.736 5.06-17 .13 5.268.412 11.045.94 17zm9 37h-15V54h7.394c1.37 10.608 3.71 21.302 7.606 30zm6.561 11.377c4.969 5.365 12.611 9.028 21.439 11.454V123h-44V90h18.513a37.14 37.14 0 004.048 5.377zM356 110.854V123h-44v-15c14.646 3.059 31.32 3.315 44 2.854z"/><g opacity=".3" style="mix-blend-mode:screen" fill="#E2EBF7" fill-rule="nonzero"><path d="M341.718 47.206l-28.887-34.585v30.998l3.216 3.587zM306.6 36.697V6.15a45.72 45.72 0 00-21.265 6.897l21.265 23.65zM346.994 53.526h-25.262l27.472 30.534h6.939V64.485z" opacity=".6"/></g><ellipse cx="65.5" cy="315.5" fill="#F4F4EA" fill-rule="nonzero" rx="65.5" ry="8.5"/><ellipse cx="332.5" cy="313.5" fill="#F4F4EA" fill-rule="nonzero" rx="23.5" ry="3.5"/><path fill="#EED7BA" fill-rule="nonzero" d="M45.844 231.194c-10.05-4.194-4.763 60.787-1.572 71.654 3.192 10.868 2.918-22.035 3.978-40.566 1.06-18.53 1.548-29.435-2.406-31.088zm35.241-2.009c-10.238-4.09-7.201 60.94-4.274 71.747 2.927 10.807 4.213-8.981 5.842-27.518 1.629-18.537 2.462-42.616-1.568-44.23z"/><path fill="#FABD7E" fill-rule="nonzero" d="M83 295.127L81.603 309l-5.278-.913L75 293zm-32 .066L49.489 309l-5.302-.96L43 293zm45.262-165.196a5.07 5.07 0 01-4.032-2.403c-4.374-6.785-20.074-31.452-18.051-34.362 2.351-3.38 26.646 31.192 25.8 33.198-.658 1.56-1.05 3.666-3.717 3.567z"/><path fill="#FABD7E" fill-rule="nonzero" d="M76.002 97s-2.993-1.092-2.843-2.93c.15-1.838-3.42-2.018-3.144-3.393.276-1.375 4.259-4.473 6.739-1.285a10.947 10.947 0 012.242 6.953L76.002 97z"/><path fill="#F69A46" d="M86 105c-2.485-3.549-4.97-6.576-7.454-9.08-.168-2.519-1.072-5.06-2.414-5.92-.42 1.044-.797 1.801-1.132 2.27 1.143-.113 2.27 1.215 3.379 3.984.999.894 3.54 3.81 7.621 8.746z"/><path fill="#EED7BA" fill-rule="nonzero" d="M62.08 184.87c-4.089.75-6.794 5.26-5.913 9.77a120.774 120.774 0 005.611 17.96c5.927 14.304 10.696 27.882 16.56 28.383 5.863.5 7.549-10.02 3.27-24.775-3.85-13.29-5.422-30.625-9.65-31.877-2.14-.714-6.266-.15-9.878.538z"/><path fill="#EED7BA" fill-rule="nonzero" d="M49.042 183.08c-3.845-.64-7.802 2.67-8.623 7.158A124.722 124.722 0 0039 208.782c.15 15.26-.46 29.465 4.492 31.847 4.952 2.382 10.141-6.92 11.597-21.992 1.307-13.629 6.047-30.28 2.787-32.825-1.704-1.278-5.524-2.169-8.834-2.733z"/><path fill="#E8CEB1" fill-rule="nonzero" d="M56.096 127.626a4.959 4.959 0 003.916 3.691c8.505 2.018 38.97 8.17 40.854 2.018 2.282-7.16-25.228-11.074-32.823-11.32-6.335-.172-12.92 1.07-11.947 5.611z"/><path fill="url(#a)" fill-rule="nonzero" d="M64 119.336l24.46 5.257-8.423-14.947L87.003 105s19.738 25.783 15.364 30.74c-4.373 4.958-32.498.212-32.498.212L64 119.336z"/><path fill="#000" fill-rule="nonzero" d="M100.809 134.52c.418-.066.696-.113.833-.14.1-.02-.899-.762-.833-.779.137-.035 1.346.22 1.335.196-.039-.077-.718-.57-.62-.632.188-.119.634.028.62 0 .314-2.85-4.775-12.238-15.268-28.165 0 0 19.895 25.783 15.486 30.74-4.408 4.958-32.757.212-32.757.212-.807-.918-.807-1.396 0-1.432 11.741 2.21 29.932 3.686 31.844.754.183-.042-.03-.294-.64-.754z" opacity=".55" style="mix-blend-mode:soft-light"/><path fill="#FABD7E" fill-rule="nonzero" d="M53 116.226L63.393 121l1.027-6.826c.305.208.628.386.965.532a7.385 7.385 0 007.052-.595 4.01 4.01 0 001.535-1.9c.648-1.757.99-3.617 1.014-5.496a2.729 2.729 0 000-.557 63.192 63.192 0 00-.903-11.334.13.13 0 01.087 0l-.075-.14s-1.769-1.152-4.578-2.659a5.334 5.334 0 00-3.501-1.013c-2.895 0-2.833.646-4.157 1.013-1.324.368-2.858 2.001-5.444 4.066-4.764 3.799-1.844 11.144-1.844 11.144h-.123l.123.164L53 116.226z"/><path fill="url(#b)" fill-rule="nonzero" d="M75.683 183.736s10.836 40.335 11.282 52.729c.446 12.394-3.542 63.739-3.542 63.739h-8.025s-4.719-53.615-5.375-58.415c-.656-4.8-10.118-24.812-10.118-24.812l-8.818 84.786s-7.43.448-7.716.112c-.284-.337-10.526-114.885 1.363-118.875"/><path fill="#000" fill-rule="nonzero" d="M76 184s10.533 40.173 10.966 52.517C87.4 248.861 83.523 300 83.523 300h-1.161s2.635-62.095 2.635-63.483c0-.925-3-18.43-8.997-52.517z" opacity=".567" style="mix-blend-mode:soft-light"/><path fill="url(#c)" fill-rule="nonzero" d="M47.584 186.822c.892 0 1.796.062 2.688.062 8.09 0 16.38.758 24.123-1.602.47-.07.905-.293 1.238-.633.272-.354.4-.797.36-1.241-1.35-14.515-.471-28.136-2.144-41.657-.557-4.52.161-15.546-9.49-22.536l-1.053-.323a26.71 26.71 0 01-3.357-1.167A26.336 26.336 0 0153.853 114c-4.708 2.223-9.193 5.55-11.312 10.318a19.586 19.586 0 00-1.536 6.829 24.366 24.366 0 000 3.564 74.56 74.56 0 00-.545 6.084l-.074 1.986c-.149 6.022-.41 12.032-.384 18.054 0 6.357.594 12.416 1.016 18.699.111 1.552.272 3.427.334 4.966 0 .596-.074 2.148.818 2.21.892.062 4.51.075 5.414.112z"/><path fill="#EED7BA" fill-rule="nonzero" d="M45.513 122.182c-1.796.63-3.082 2.287-3.3 4.253-1.205 8.733-4.902 38.065 1.204 39.487 7.167 1.687 8.937-24.55 8.528-32.214-.338-6.38-2.072-12.885-6.432-11.526z"/><path fill="url(#d)" fill-rule="nonzero" d="M83.335 303.632a39.278 39.278 0 006.65 7.137c4.67 4.066 5.966 3.278 6.015 4.724.049 1.445-20-.658-20-.658L76.355 303s6.98.374 6.98.632z"/><path fill="url(#e)" fill-rule="nonzero" d="M50.025 304.433a38.195 38.195 0 006.866 6.616c4.777 3.71 6.109 2.968 6.109 4.34 0 1.374-20 0-20 0V304s7.025.136 7.025.433z"/><path fill="#FABD7E" fill-rule="nonzero" d="M41.969 161.306a5.016 5.016 0 014.627.618c6.74 4.515 31.033 21.073 30.392 24.58-.742 4.073-36.867-18.186-36.918-20.393-.038-1.702-.553-3.77 1.899-4.805z"/><path fill="#FABD7E" fill-rule="nonzero" d="M74.697 183s3.13.236 3.451 1.988c.322 1.752 3.712.994 3.848 2.361.136 1.367-2.945 5.27-6.112 2.908A10.426 10.426 0 0172 184.355L74.697 183z"/><path fill="#F69A46" d="M63.103 180.236c4.366 2.41 7.66 4.024 9.879 4.84.289.972 3.436 7.714 7.469 5.469 1.715-.992 2.565-2.095 2.549-3.307-.98 1.82-2.271 2.729-3.873 2.729-1.602 0-3.411-1.74-5.427-5.222-6.549-3.454-10.006-5.37-10.372-5.745-.341.29-.416.703-.225 1.236z"/><path fill="url(#f)" fill-rule="nonzero" d="M52.364 139.822l-2.436 20.635L67 174.794 61.15 182s-20.084-10.833-22.532-16.573c-2.447-5.74-3.514-45.222 7.294-44.415 10.03.746 6.452 18.81 6.452 18.81z"/><path fill="#000" fill-rule="nonzero" d="M42.089 164.506c-.052.402-.052.627 0 .676C46.084 171.025 52.72 176.964 62 183c0 0-19.96-10.912-22.392-16.693-2.02-4.801-3.094-33.044 2.753-42.016.076-.117 3.034-6.691 11.518-10.291-14.245 10.506-14.557 29.302-12.697 48.678l-.01.261c-.003.07-.38.137-.382.207-.007.17 1.577-.171 1.57 0-.008.23-1.18 1.129-1.188 1.36-.007.177.94-.58.932-.403l-.015.403z" opacity=".604" style="mix-blend-mode:soft-light"/><path fill="#5B5151" fill-rule="nonzero" d="M76.92 88.336a6.26 6.26 0 00-1.56-3.686c-1.888-1.978-4.292-1.941-6.746-1.118a34.98 34.98 0 01-4.846 1.34c-3.222.589-7.086 0-9.704 2.383a5.65 5.65 0 00-1.36 1.806 9.774 9.774 0 00-.579 5.198c.315 3.44.793 6.857 1.259 10.285.214 1.819.428 3.687.63 5.456l1.736-1.622 3.16-2.912a3.583 3.583 0 001.07-1.807c.21-.712.336-1.446.377-2.187a9.39 9.39 0 01-.151-3.612c.327-1.057 1.636-1.967 2.517-.959.601.697 1.16 1.427 1.674 2.187.453.59.919 1.45 1.75 1.536 1.661.172 1.258-2.543 1.17-3.428-.239-3.207 5.236-2.679 7.15-3.588 1.853-1.094 2.828-3.188 2.454-5.272z"/><path fill="#E37D37" fill-rule="nonzero" d="M337.199 300c0-2.237-1.61-4.188-1.347-6.437.499-4.398 5.825-5.169 8.545-7.716 3.468-3.23-.711-6.66-2.283-9.618-3.056-5.716 2.744-10.002 5.451-14.34 1.335-2.136 1.772-4.684.163-6.771a15.73 15.73 0 00-3.418-2.771c-2.957-2.187-3.443-5.778-.587-8.338 4.491-4.013 10.803-7.107 10.242-14.203a3.597 3.597 0 00-.599-1.9 2.82 2.82 0 00-2.17-.97c-4.005-.124-8.62 3.864-12.475 1.069-4.99-3.629-14.683-14.377-21.207-5.704-2.495 3.268-1.784 7.667.224 10.96 2.246 3.727 4.342 7.604 4.204 12.04-.137 4.436-.923 6.313-4.428 8.86-3.007 2.175-6.574 2.66-7.41 6.735-1.435 6.983 12.475 4.523 11.701 11.183-.461 3.84-2.857 6.375-4.104 9.866a3.144 3.144 0 00-.175 1.877 3.97 3.97 0 001.784 2c4.316 3.02 11.664 6.598 10.94 12.935" opacity=".322"/><path fill="#FFF" fill-rule="nonzero" d="M345.795 234.508c-6.514-.736-11.171 4.55-12.653 6.507a20.636 20.636 0 00-3.565-9.91.277.277 0 00-.364-.063.262.262 0 000 .362 20.785 20.785 0 013.528 10.247v.075a.244.244 0 00-.043.197.245.245 0 00.118.164c.527 5.51-.176 11.631-.841 17.316-.264 2.294-.515 4.45-.69 6.52v.71a42.756 42.756 0 00-12.98-4.849.264.264 0 00-.301.212.262.262 0 00.2.3 42.289 42.289 0 0112.905 4.948c-.24 5.178-.165 10.365.226 15.534-1.456-.437-7.193-1.945-10.72-.138a.262.262 0 00-.046.474c.089.051.2.047.284-.012 3.49-1.795 9.553-.063 10.52.224.363 5.373.865 9.375.878 9.45a.25.25 0 00.251.224.263.263 0 00.226-.287s-.188-1.558-.427-3.94a.246.246 0 00.201-.124c0-.062 3.427-6.058 8.624-5.074a.25.25 0 00.193-.036.246.246 0 00.108-.163.257.257 0 00-.04-.2.26.26 0 00-.173-.112c-4.82-.935-8.16 3.74-8.976 4.987a141.182 141.182 0 01-.552-22.078c.138-1.745.352-3.578.565-5.473.74-.436 6.565-3.665 11.473-2.007a.261.261 0 00.163-.487c-4.72-1.595-10.042 1.01-11.56 1.858v-.386c.677-5.797 1.393-12.055.828-17.677.853-1.247 5.61-7.48 12.552-6.77a.238.238 0 00.289-.224.262.262 0 00-.2-.3z"/><path fill="url(#g)" fill-rule="nonzero" d="M325.679 314h14.642a1.845 1.845 0 001.815-1.679L344 293h-22l1.864 19.321c.083.948.87 1.676 1.815 1.679z"/><g fill-rule="nonzero" transform="rotate(180 332.5 294)"><use fill="url(#h)" xlink:href="#i"/><use fill="url(#j)" xlink:href="#i"/></g><path fill="#F4F4EA" fill-rule="nonzero" d="M287 105.101v128.773a9.119 9.119 0 01-9.119 9.126H133.119a9.12 9.12 0 01-9.119-9.126V105.1c.007-5.028 4.088-9.101 9.12-9.101h144.76c5.032 0 9.113 4.073 9.12 9.101z"/><path fill="#D45A5F" fill-rule="nonzero" d="M287 104.975V112H124v-7.025c.007-4.95 4.073-8.962 9.096-8.975h144.783c5.033 0 9.114 4.016 9.121 8.975z"/><circle cx="205.5" cy="169.5" r="41.5" fill="#DDDDD7" fill-rule="nonzero"/><path fill="#675B51" fill-rule="nonzero" d="M205.506 145c-7.46.02-13.5 6.134-13.506 13.672V173h27v-14.328c-.007-7.533-6.038-13.644-13.494-13.672zm9.017 23.45h-17.971v-9.778c-.123-3.333 1.567-6.468 4.406-8.171a8.936 8.936 0 019.21 0c2.837 1.703 4.528 4.838 4.405 8.171l-.05 9.779z"/><path fill="#675B51" fill-rule="nonzero" d="M199 172h12v13h-12z"/><path fill="#EA9B35" fill-rule="nonzero" d="M222.882 162h-34.777c-1.165.007-2.105.967-2.105 2.15v27.7c0 1.183.94 2.143 2.105 2.15h34.777c1.17 0 2.118-.962 2.118-2.15v-27.688a2.166 2.166 0 00-.616-1.528 2.1 2.1 0 00-1.502-.634zm-14.162 18.573c-.006 1.583-1.131 2.933-2.669 3.202-1.537.269-3.042-.622-3.57-2.112-.527-1.49.077-3.15 1.43-3.935v-2.314c.074-.835.763-1.475 1.589-1.475s1.515.64 1.588 1.475v2.377a3.28 3.28 0 011.632 2.782z"/><path fill="#E37E37" fill-rule="nonzero" d="M225 164.15v27.712c0 1.181-.942 2.138-2.105 2.138h-34.79c-1.163 0-2.105-.957-2.105-2.138v-1.39c8.27.113 20.577-.254 27.241-2.998 9.554-3.934 9.542-20.238 9.206-25.474h.448c1.165.007 2.105.968 2.105 2.15z" opacity=".3" style="mix-blend-mode:multiply"/><path fill="#FFF" fill-rule="nonzero" d="M250 104.5a2.5 2.5 0 01-5 0 2.5 2.5 0 015 0zm12 0a2.5 2.5 0 01-5 0 2.5 2.5 0 012.5-2.5 2.489 2.489 0 012.5 2.5zm13 0a2.5 2.5 0 11-2.486-2.5 2.488 2.488 0 012.486 2.5z"/><text fill="#EEAB33" font-family="Poppins-Medium, Poppins" font-size="40.25" font-weight="400" opacity=".59" transform="rotate(25.64 333.866 177.151)"><tspan x="320.145" y="184.259">?</tspan></text><text fill="#EEAB33" font-family="Poppins-Medium, Poppins" font-size="23.84" font-weight="400" opacity=".59"><tspan x="217" y="55">?</tspan></text><text fill="#EEAB33" font-family="Poppins-Medium, Poppins" font-size="19.41" font-weight="400" opacity=".59" transform="rotate(-31.96 190.351 74.475)"><tspan x="183.49" y="77.652">?</tspan></text><path fill="url(#k)" fill-rule="nonzero" d="M128.744 30c-22.19 0-40.119 8.803-40.119 19.665a12.435 12.435 0 004.238 8.804C88.713 62.189 80.063 70 80 70l21.137-6.076c7.21 3.36 16.938 5.419 27.67 5.419 22.202 0 40.193-8.804 40.193-19.678S150.984 30 128.744 30z"/><text fill="#FFF" font-family="Poppins-Medium, Poppins" font-size="25.91" font-weight="400"><tspan x="123" y="53">?</tspan></text><path fill="#000" opacity=".669" style="mix-blend-mode:soft-light" d="M60 216.696L51 302l6.295-90z"/></g></svg>