<svg width="10" height="11" viewBox="0 0 10 11" fill="none" xmlns="http://www.w3.org/2000/svg">
<g opacity="0.7">
<path d="M4.83333 1.49951C3.68458 1.49951 2.75 2.4341 2.75 3.58285V4.83285H2.33333C2.11232 4.83285 1.90036 4.92064 1.74408 5.07692C1.5878 5.2332 1.5 5.44516 1.5 5.66618V8.99951C1.5 9.22053 1.5878 9.43249 1.74408 9.58877C1.90036 9.74505 2.11232 9.83285 2.33333 9.83285H7.33333C7.55435 9.83285 7.76631 9.74505 7.92259 9.58877C8.07887 9.43249 8.16667 9.22053 8.16667 8.99951V5.66618C8.16667 5.44516 8.07887 5.2332 7.92259 5.07692C7.76631 4.92064 7.55435 4.83285 7.33333 4.83285H6.91667V3.58285C6.91667 2.4341 5.98208 1.49951 4.83333 1.49951ZM3.58333 3.58285C3.58333 2.89368 4.14417 2.33285 4.83333 2.33285C5.5225 2.33285 6.08333 2.89368 6.08333 3.58285V4.83285H3.58333V3.58285ZM5.25 8.05076V8.99951H4.41667V8.05076C4.27099 7.96734 4.15402 7.84173 4.08118 7.69049C4.00833 7.53925 3.98304 7.36949 4.00862 7.20358C4.0342 7.03768 4.10946 6.88342 4.22449 6.76115C4.33951 6.63888 4.48888 6.55434 4.65292 6.51868C4.77476 6.49174 4.90109 6.49249 5.0226 6.52088C5.14411 6.54927 5.2577 6.60457 5.35499 6.68271C5.45228 6.76085 5.5308 6.85982 5.58474 6.97235C5.63868 7.08487 5.66668 7.20806 5.66667 7.33285C5.66643 7.47857 5.62779 7.62166 5.55464 7.7477C5.48149 7.87373 5.37641 7.97827 5.25 8.05076Z" fill="#5B5151"/>
</g>
</svg>
