<svg width="22" height="22" viewBox="0 0 22 22" fill="none" xmlns="http://www.w3.org/2000/svg">
<path d="M4.42871 14.3615H4.04763C2.38092 14.3615 1 13.0283 1 11.3568V4.00471C1 2.33815 2.38096 1 4.05231 1H11.4667C13.138 1 14.519 2.33815 14.519 4.00471V4.27126C16.6571 4.27126 17.9285 5.40938 17.9285 7.63302C19.6189 7.63302 21 8.94732 21 10.6377V17.966C21 19.6375 19.6428 20.9948 17.9714 20.9948H10.4856C8.83799 20.9948 7.48092 19.6375 7.48092 17.9662V17.609C5.74291 17.4518 4.42861 16.4708 4.42861 14.6233C4.42876 14.6235 4.42876 14.3616 4.42876 14.3616L4.42871 14.3615ZM16.7902 7.63783V7.28062C16.7902 6.23319 15.9236 5.40935 14.895 5.40935L7.45718 5.4092C6.40975 5.4092 5.54298 6.23303 5.54298 7.28046V14.6278C5.54298 15.8325 6.36682 16.3658 7.48118 16.4753V10.6423C7.48118 8.99467 8.83841 7.6376 10.4859 7.6376L16.7902 7.63744V7.63783ZM17.9713 8.75191H10.4855C9.46174 8.75191 8.61422 9.59943 8.61422 10.6472V17.9755C8.61422 19.0229 9.46174 19.8707 10.4855 19.8707H17.9661C19.0135 19.8707 19.8614 19.0232 19.8614 17.9755V10.6424C19.8614 9.59482 19.0185 8.75195 17.9711 8.75195L17.9713 8.75191ZM13.3808 4.27567V4.00912C13.3808 2.96169 12.5142 2.13785 11.4666 2.13785L4.05221 2.1377C3.00478 2.1377 2.13802 2.96153 2.13802 4.00896V11.3563C2.13802 12.4037 3.00463 13.2276 4.05221 13.2276H4.43329V7.28027C4.43329 5.60891 5.81424 4.27556 7.46188 4.27556H13.381L13.3808 4.27567Z" fill="#EEAB34" stroke="#3C4E58" stroke-width="0.2"/>
</svg>
