<svg width="24" height="24" viewBox="0 0 24 24" fill="none" xmlns="http://www.w3.org/2000/svg">
<path d="M12.2237 0.647949H11.7783C5.62497 0.647949 0.636719 5.73052 0.636719 12.0002V12.0038C0.636719 18.2735 5.62497 23.3561 11.7783 23.3561H12.2237C18.377 23.3561 23.3652 18.2735 23.3652 12.0038V12.0002C23.3652 5.73052 18.377 0.647949 12.2237 0.647949Z" fill="#00C72E"/>
<path d="M12.2227 24H11.7773C8.65378 24 5.65817 22.7357 3.4495 20.4853C1.24082 18.2348 0 15.1826 0 12C0 8.8174 1.24082 5.76515 3.4495 3.51472C5.65817 1.26428 8.65378 0 11.7773 0H12.2227C15.3462 0 18.3418 1.26428 20.5505 3.51472C22.7592 5.76515 24 8.8174 24 12C24 15.1826 22.7592 18.2348 20.5505 20.4853C18.3418 22.7357 15.3462 24 12.2227 24ZM11.7773 1.29186C8.99004 1.29186 6.31692 2.42003 4.34602 4.4282C2.37512 6.43636 1.26788 9.16002 1.26788 12C1.26788 14.84 2.37512 17.5636 4.34602 19.5718C6.31692 21.58 8.99004 22.7081 11.7773 22.7081H12.2227C13.6028 22.7081 14.9694 22.4312 16.2445 21.893C17.5195 21.3549 18.6781 20.5661 19.654 19.5718C20.6299 18.5775 21.404 17.397 21.9321 16.0978C22.4603 14.7987 22.7321 13.4062 22.7321 12C22.7321 10.5938 22.4603 9.20134 21.9321 7.90217C21.404 6.603 20.6299 5.42254 19.654 4.4282C18.6781 3.43386 17.5195 2.6451 16.2445 2.10697C14.9694 1.56883 13.6028 1.29186 12.2227 1.29186H11.7773Z" fill="white"/>
<g style="mix-blend-mode:overlay">
<path d="M12.2228 3.37058C14.469 3.37058 16.6232 4.27975 18.2115 5.89809C19.7998 7.51643 20.6921 9.71136 20.6921 12C20.6921 14.2887 19.7998 16.4837 18.2115 18.102C16.6232 19.7203 14.469 20.6295 12.2228 20.6295H11.7774C9.53123 20.6295 7.37703 19.7203 5.78872 18.102C4.20042 16.4837 3.30811 14.2887 3.30811 12C3.30811 9.71136 4.20042 7.51643 5.78872 5.89809C7.37703 4.27975 9.53123 3.37058 11.7774 3.37058H12.2228ZM12.2228 2.96436H11.7774C9.45687 3.01195 7.24711 3.98464 5.62249 5.67363C3.99787 7.36262 3.08789 9.63329 3.08789 11.9982C3.08789 14.3631 3.99787 16.6338 5.62249 18.3228C7.24711 20.0118 9.45687 20.9845 11.7774 21.0321H12.2228C14.5434 20.9845 16.7531 20.0118 18.3778 18.3228C20.0024 16.6338 20.9124 14.3631 20.9124 11.9982C20.9124 9.63329 20.0024 7.36262 18.3778 5.67363C16.7531 3.98464 14.5434 3.01195 12.2228 2.96436Z" fill="#A1A1A1"/>
</g>
<path d="M16.8091 7.34473L10.6169 13.654L8.16733 11.1581L6.46484 12.8928L10.6169 17.1233L18.5115 9.0794L16.8091 7.34473Z" fill="white"/>
</svg>
