<svg width="24" height="24" viewBox="0 0 24 24" fill="none" xmlns="http://www.w3.org/2000/svg">
<path d="M7.40625 4H15.4813L19.3063 7.82501V18.45" stroke="#5B5151" stroke-width="1.33068" stroke-linecap="round" stroke-linejoin="round"/>
<path d="M4 19.725V7.82499C4 7.48684 4.13433 7.16254 4.37344 6.92343C4.61255 6.68432 4.93685 6.54999 5.275 6.54999H13.5642C13.6994 6.55011 13.8291 6.60392 13.9246 6.69959L16.6004 9.37539C16.648 9.42291 16.6857 9.47936 16.7114 9.54151C16.7371 9.60365 16.7502 9.67026 16.75 9.73749V19.725C16.75 20.0632 16.6157 20.3875 16.3766 20.6266C16.1375 20.8657 15.8132 21 15.475 21H5.275C4.93685 21 4.61255 20.8657 4.37344 20.6266C4.13433 20.3875 4 20.0632 4 19.725Z" stroke="#5B5151" stroke-width="1.33068" stroke-linecap="round" stroke-linejoin="round"/>
<path d="M13.3594 9.43988V6.85078C13.3595 6.79135 13.3772 6.73327 13.4103 6.68389C13.4433 6.6345 13.4903 6.59602 13.5452 6.57329C13.6001 6.55056 13.6605 6.5446 13.7188 6.55617C13.7771 6.56773 13.8307 6.59631 13.8728 6.63828L16.671 9.43648C16.7134 9.4784 16.7423 9.532 16.7541 9.59044C16.7659 9.64888 16.76 9.7095 16.7372 9.76459C16.7144 9.81968 16.6758 9.86672 16.6261 9.89972C16.5765 9.93272 16.5181 9.95019 16.4585 9.94988H13.8694C13.7341 9.94988 13.6044 9.89615 13.5088 9.80051C13.4131 9.70487 13.3594 9.57514 13.3594 9.43988Z" fill="#5B5151" stroke="#5B5151" stroke-width="0.720784" stroke-linecap="round" stroke-linejoin="round"/>
</svg>
