<svg width="13" height="15" viewBox="0 0 13 15" fill="none" xmlns="http://www.w3.org/2000/svg">
<path d="M4.28906 5.35718H5.36049V11.7857H4.28906V5.35718Z" fill="#9DA6AB"/>
<path d="M7.5 5.35718H8.57143V11.7857H7.5V5.35718Z" fill="#9DA6AB"/>
<path d="M0 2.14282V3.21425H1.07143V13.9285C1.07143 14.2127 1.18431 14.4852 1.38524 14.6862C1.58617 14.8871 1.8587 15 2.14286 15H10.7143C10.9984 15 11.271 14.8871 11.4719 14.6862C11.6728 14.4852 11.7857 14.2127 11.7857 13.9285V3.21425H12.8571V2.14282H0ZM2.14286 13.9285V3.21425H10.7143V13.9285H2.14286Z" fill="#9DA6AB"/>
<path d="M4.28906 0H8.57478V1.07143H4.28906V0Z" fill="#9DA6AB"/>
</svg>
