<svg width="8" height="9" viewBox="0 0 8 9" fill="none" xmlns="http://www.w3.org/2000/svg">
<path d="M0.666016 7.12484V1.2915C0.666016 1.12574 0.731864 0.966772 0.849074 0.849562C0.966284 0.732352 1.12526 0.666504 1.29102 0.666504H5.35435C5.42063 0.666562 5.48418 0.69294 5.53102 0.739837L6.84268 2.0515C6.866 2.0748 6.88449 2.10247 6.89707 2.13293C6.90966 2.16339 6.9161 2.19604 6.91602 2.229V7.12484C6.91602 7.2906 6.85017 7.44957 6.73296 7.56678C6.61575 7.68399 6.45678 7.74984 6.29102 7.74984H1.29102C1.12526 7.74984 0.966284 7.68399 0.849074 7.56678C0.731864 7.44957 0.666016 7.2906 0.666016 7.12484Z" stroke="#00A595" stroke-width="0.8125" stroke-linecap="round" stroke-linejoin="round"/>
<path d="M5.25 2.08291V0.813741C5.25005 0.784607 5.25873 0.75614 5.27494 0.731932C5.29115 0.707724 5.31417 0.688859 5.34109 0.677717C5.36801 0.666575 5.39763 0.663654 5.4262 0.669324C5.45478 0.674993 5.48104 0.688999 5.50167 0.709575L6.87333 2.08124C6.89411 2.10179 6.9083 2.12806 6.91409 2.15671C6.91987 2.18535 6.91699 2.21507 6.90582 2.24208C6.89464 2.26908 6.87567 2.29214 6.85133 2.30832C6.827 2.3245 6.79839 2.33306 6.76917 2.33291H5.5C5.4337 2.33291 5.37011 2.30657 5.32322 2.25968C5.27634 2.2128 5.25 2.14921 5.25 2.08291Z" fill="#00A595" stroke="#00A595" stroke-width="0.8125" stroke-linecap="round" stroke-linejoin="round"/>
</svg>
