<svg width="16" height="16" viewBox="0 0 16 16" fill="none" xmlns="http://www.w3.org/2000/svg">
<path d="M12.059 12.42C11.2009 13.2082 10.1319 13.7296 8.98252 13.9204C7.83311 14.1112 6.653 13.9632 5.5863 13.4945C4.51959 13.0257 3.61243 12.2566 2.97558 11.2809C2.33873 10.3052 1.99974 9.16516 2 8.00002H3C2.99993 9.00712 3.30398 9.99076 3.87234 10.8222C4.4407 11.6535 5.24688 12.2939 6.18531 12.6594C7.12374 13.025 8.15067 13.0986 9.13164 12.8706C10.1126 12.6427 11.0019 12.1238 11.683 11.382H10.23C10.0974 11.382 9.97022 11.3293 9.87645 11.2356C9.78268 11.1418 9.73 11.0146 9.73 10.882C9.73 10.7494 9.78268 10.6222 9.87645 10.5285C9.97022 10.4347 10.0974 10.382 10.23 10.382H12.559C12.6916 10.382 12.8188 10.4347 12.9126 10.5285C13.0063 10.6222 13.059 10.7494 13.059 10.882V13.209C13.059 13.3416 13.0063 13.4688 12.9126 13.5626C12.8188 13.6563 12.6916 13.709 12.559 13.709C12.4264 13.709 12.2992 13.6563 12.2054 13.5626C12.1117 13.4688 12.059 13.3416 12.059 13.209V12.419V12.42ZM4.317 4.61902H5.77C5.90261 4.61902 6.02979 4.6717 6.12355 4.76546C6.21732 4.85923 6.27 4.98641 6.27 5.11902C6.27 5.25163 6.21732 5.3788 6.12355 5.47257C6.02979 5.56634 5.90261 5.61902 5.77 5.61902H3.44C3.30739 5.61902 3.18022 5.56634 3.08645 5.47257C2.99268 5.3788 2.94 5.25163 2.94 5.11902V2.79002C2.94 2.65741 2.99268 2.53023 3.08645 2.43646C3.18022 2.3427 3.30739 2.29002 3.44 2.29002C3.57261 2.29002 3.69979 2.3427 3.79355 2.43646C3.88732 2.53023 3.94 2.65741 3.94 2.79002V3.58002C4.79796 2.79082 5.86723 2.26864 7.01714 2.07729C8.16706 1.88595 9.34781 2.03372 10.4151 2.50256C11.4824 2.9714 12.39 3.74099 13.027 4.71728C13.664 5.69358 14.0028 6.83429 14.002 8.00002H13.002C13.0021 6.99279 12.698 6.00901 12.1295 5.17754C11.561 4.34607 10.7546 3.70569 9.81604 3.34025C8.87744 2.97482 7.85035 2.90138 6.86931 3.12956C5.88826 3.35774 4.999 3.87689 4.318 4.61902H4.317Z" fill="#5B5151"/>
</svg>
