<svg width="8" height="8" viewBox="0 0 8 8" fill="none" xmlns="http://www.w3.org/2000/svg">
<path d="M4.625 7.75H3.375C3.20924 7.75 3.05027 7.68415 2.93306 7.56694C2.81585 7.44973 2.75 7.29076 2.75 7.125V4.75313L0.434375 2.4375C0.317004 2.32083 0.250698 2.16237 0.25 1.99688V0.875C0.25 0.70924 0.315848 0.550268 0.433058 0.433058C0.550268 0.315848 0.70924 0.25 0.875 0.25H7.125C7.29076 0.25 7.44973 0.315848 7.56694 0.433058C7.68415 0.550268 7.75 0.70924 7.75 0.875V1.99688C7.7493 2.16237 7.683 2.32083 7.56563 2.4375L5.25 4.75313V7.125C5.25 7.29076 5.18415 7.44973 5.06694 7.56694C4.94973 7.68415 4.79076 7.75 4.625 7.75ZM0.875 0.875V1.99688L3.375 4.49687V7.125H4.625V4.49687L7.125 1.99688V0.875H0.875Z" fill="#9DA6AB" stroke="#9DA6AB" stroke-width="0.2"/>
</svg>
