<svg width="16" height="16" viewBox="0 0 16 16" fill="none" xmlns="http://www.w3.org/2000/svg">
<path d="M4.5 3C4.10218 3 3.72064 3.15804 3.43934 3.43934C3.15804 3.72064 3 4.10218 3 4.5V11.5C3 11.8978 3.15804 12.2794 3.43934 12.5607C3.72064 12.842 4.10218 13 4.5 13H11.5C11.8978 13 12.2794 12.842 12.5607 12.5607C12.842 12.2794 13 11.8978 13 11.5V9.27C13 9.13739 13.0527 9.01021 13.1464 8.91645C13.2402 8.82268 13.3674 8.77 13.5 8.77C13.6326 8.77 13.7598 8.82268 13.8536 8.91645C13.9473 9.01021 14 9.13739 14 9.27V11.5C14 12.163 13.7366 12.7989 13.2678 13.2678C12.7989 13.7366 12.163 14 11.5 14H4.5C3.83696 14 3.20107 13.7366 2.73223 13.2678C2.26339 12.7989 2 12.163 2 11.5V4.5C2 3.83696 2.26339 3.20107 2.73223 2.73223C3.20107 2.26339 3.83696 2 4.5 2H6.73C6.86261 2 6.98979 2.05268 7.08355 2.14645C7.17732 2.24021 7.23 2.36739 7.23 2.5C7.23 2.63261 7.17732 2.75979 7.08355 2.85355C6.98979 2.94732 6.86261 3 6.73 3H4.5ZM8.77 2.5C8.77 2.36739 8.82268 2.24021 8.91645 2.14645C9.01021 2.05268 9.13739 2 9.27 2H13.5C13.6326 2 13.7598 2.05268 13.8536 2.14645C13.9473 2.24021 14 2.36739 14 2.5V6.73C14 6.86261 13.9473 6.98979 13.8536 7.08355C13.7598 7.17732 13.6326 7.23 13.5 7.23C13.3674 7.23 13.2402 7.17732 13.1464 7.08355C13.0527 6.98979 13 6.86261 13 6.73V3.708L9.623 7.084C9.57688 7.13176 9.5217 7.16985 9.4607 7.19605C9.3997 7.22226 9.33409 7.23605 9.2677 7.23663C9.20131 7.2372 9.13547 7.22455 9.07402 7.19941C9.01258 7.17427 8.95675 7.13714 8.9098 7.0902C8.86286 7.04325 8.82573 6.98743 8.80059 6.92598C8.77545 6.86453 8.7628 6.79869 8.76337 6.7323C8.76395 6.66591 8.77774 6.6003 8.80395 6.5393C8.83015 6.4783 8.86825 6.42312 8.916 6.377L12.293 3H9.269C9.13639 3 9.00921 2.94732 8.91545 2.85355C8.82168 2.75979 8.769 2.63261 8.769 2.5H8.77Z" fill="#9DA6AB"/>
</svg>
