<svg width="19" height="12" viewBox="0 0 19 12" fill="none" xmlns="http://www.w3.org/2000/svg">
<path d="M9.29567 11C13.8774 11 17.5913 6 17.5913 6C17.5913 6 13.8774 1 9.29567 1C4.71397 1 1 6 1 6C1 6 4.71397 11 9.29567 11Z" stroke="white" stroke-width="1.33333" stroke-linejoin="round"/>
<path d="M9.29267 8.08268C9.84271 8.08268 10.3702 7.86319 10.7592 7.47249C11.1481 7.08179 11.3666 6.55188 11.3666 5.99935C11.3666 5.44681 11.1481 4.91691 10.7592 4.52621C10.3702 4.13551 9.84271 3.91602 9.29267 3.91602C8.74263 3.91602 8.21512 4.13551 7.82619 4.52621C7.43725 4.91691 7.21875 5.44681 7.21875 5.99935C7.21875 6.55188 7.43725 7.08179 7.82619 7.47249C8.21512 7.86319 8.74263 8.08268 9.29267 8.08268Z" stroke="white" stroke-width="1.66667" stroke-linejoin="round"/>
</svg>
