<svg width="19" height="12" viewBox="0 0 19 12" fill="none" xmlns="http://www.w3.org/2000/svg">
<path d="M9.29567 11C13.8774 11 17.5913 6 17.5913 6C17.5913 6 13.8774 1 9.29567 1C4.71397 1 1 6 1 6C1 6 4.71397 11 9.29567 11Z" stroke="#E37D38" stroke-width="1.33333" stroke-linejoin="round"/>
<path d="M9.29267 8.08293C9.84271 8.08293 10.3702 7.86343 10.7592 7.47273C11.1481 7.08203 11.3666 6.55213 11.3666 5.99959C11.3666 5.44706 11.1481 4.91715 10.7592 4.52645C10.3702 4.13575 9.84271 3.91626 9.29267 3.91626C8.74263 3.91626 8.21512 4.13575 7.82619 4.52645C7.43725 4.91715 7.21875 5.44706 7.21875 5.99959C7.21875 6.55213 7.43725 7.08203 7.82619 7.47273C8.21512 7.86343 8.74263 8.08293 9.29267 8.08293Z" stroke="#E37D38" stroke-width="1.66667" stroke-linejoin="round"/>
</svg>
