<svg width="20" height="20" viewBox="0 0 20 20" fill="none" xmlns="http://www.w3.org/2000/svg">
<path d="M9.98958 15C14.5921 15 18.3229 10 18.3229 10C18.3229 10 14.5921 5 9.98958 5C5.38708 5 1.65625 10 1.65625 10C1.65625 10 5.38708 15 9.98958 15Z" stroke="#5B5151" stroke-width="1.33333" stroke-linejoin="round"/>
<path d="M9.98958 12.0829C10.5421 12.0829 11.072 11.8634 11.4627 11.4727C11.8534 11.082 12.0729 10.5521 12.0729 9.99959C12.0729 9.44706 11.8534 8.91715 11.4627 8.52645C11.072 8.13575 10.5421 7.91626 9.98958 7.91626C9.43705 7.91626 8.90715 8.13575 8.51644 8.52645C8.12574 8.91715 7.90625 9.44706 7.90625 9.99959C7.90625 10.5521 8.12574 11.082 8.51644 11.4727C8.90715 11.8634 9.43705 12.0829 9.98958 12.0829Z" stroke="#5B5151" stroke-width="1.66667" stroke-linejoin="round"/>
</svg>
