<svg width="20" height="20" viewBox="0 0 20 20" fill="none" xmlns="http://www.w3.org/2000/svg">
<path d="M2.973 1.70001H2.396C1.349 1.70001 0.5 2.54901 0.5 3.59601V6.24601V10.991V14.525C0.5 15.572 1.349 16.42 2.396 16.42H7.885L9.996 18.512L12.108 16.42H17.598C18.645 16.42 19.494 15.572 19.494 14.525V3.59601C19.494 2.54901 18.645 1.70001 17.598 1.70001H5.898" stroke="#EEAB34" stroke-linecap="round" stroke-linejoin="round"/>
<path fill-rule="evenodd" clip-rule="evenodd" d="M9.99806 4.50861L11.4151 7.37861L14.5831 7.83961L12.2901 10.0736L12.8321 13.2286L9.99806 11.7386L7.16506 13.2286L7.70606 10.0736L5.41406 7.83961L8.58206 7.37861L9.99806 4.50861Z" stroke="#EEAB34" stroke-linejoin="round"/>
</svg>
