<svg width="19" height="19" viewBox="0 0 19 19" fill="none" xmlns="http://www.w3.org/2000/svg">
<path d="M3.26596 0L2.31054 0.954071L3.73214 2.375L4.68621 1.42093L3.26529 0H3.26596ZM15.7347 0L14.3131 1.42093L15.2679 2.375L16.6888 0.95475L15.734 0H15.7347ZM9.5 0.423429C9.27607 0.426143 9.04943 0.439036 8.82143 0.466857C8.81464 0.466857 8.80786 0.4655 8.80107 0.466857C6.04879 0.782393 3.85836 3.00607 3.47768 5.74614C3.17368 7.9515 4.08296 9.95125 5.59821 11.2392C6.21803 11.7682 6.63726 12.494 6.78571 13.2952V17.3667H8.33286C8.569 17.7718 8.99989 18.0452 9.5 18.0452C10.0001 18.0452 10.431 17.7718 10.6671 17.3667H12.2143V14.6524H12.2781V13.8462C12.2781 12.8515 12.7951 11.8485 13.6352 11.0689C14.7589 9.94379 15.6071 8.34575 15.6071 6.51021C15.6071 3.15807 12.8481 0.392214 9.5 0.423429ZM9.5 1.78057C12.1227 1.74393 14.25 3.89093 14.25 6.51021C14.25 7.93114 13.5918 9.18243 12.6805 10.0931L12.7022 10.1148C11.7965 10.9499 11.2109 12.075 11.0465 13.2959H8.07839C7.92911 12.1329 7.43036 11.0071 6.48782 10.1996C5.28879 9.18175 4.57425 7.64818 4.81311 5.91646C5.10964 3.77896 6.84407 2.06014 8.96936 1.82468C9.14482 1.80021 9.32154 1.78572 9.49864 1.78125L9.5 1.78057ZM0 6.51021V7.86736H2.03571V6.51021H0ZM16.9643 6.51021V7.86736H19V6.51021H16.9643ZM3.73214 12.0026L2.31121 13.4228L3.26596 14.3776L4.68554 12.9566L3.73214 12.0026ZM15.2679 12.0026L14.3138 12.9566L15.734 14.3776L16.6888 13.4228L15.2679 12.0026ZM8.14286 14.6531H10.8571V16.0102H8.14286V14.6531Z" fill="#E37D38"/>
</svg>
