<svg width="14" height="17" viewBox="0 0 14 17" fill="none" xmlns="http://www.w3.org/2000/svg">
<path d="M6.66667 0C4.36917 0 2.5 1.86917 2.5 4.16667V6.66667H1.66667C1.22464 6.66667 0.800716 6.84226 0.488155 7.15482C0.175595 7.46738 0 7.89131 0 8.33333V15C0 15.442 0.175595 15.866 0.488155 16.1785C0.800716 16.4911 1.22464 16.6667 1.66667 16.6667H11.6667C12.1087 16.6667 12.5326 16.4911 12.8452 16.1785C13.1577 15.866 13.3333 15.442 13.3333 15V8.33333C13.3333 7.89131 13.1577 7.46738 12.8452 7.15482C12.5326 6.84226 12.1087 6.66667 11.6667 6.66667H10.8333V4.16667C10.8333 1.86917 8.96417 0 6.66667 0ZM4.16667 4.16667C4.16667 2.78833 5.28833 1.66667 6.66667 1.66667C8.045 1.66667 9.16667 2.78833 9.16667 4.16667V6.66667H4.16667V4.16667ZM7.5 13.1025V15H5.83333V13.1025C5.54199 12.9357 5.30805 12.6844 5.16236 12.382C5.01667 12.0795 4.96607 11.74 5.01724 11.4081C5.0684 11.0763 5.21893 10.7678 5.44897 10.5233C5.67901 10.2787 5.97776 10.1097 6.30583 10.0383C6.54951 9.98445 6.80218 9.98596 7.0452 10.0427C7.28823 10.0995 7.5154 10.2101 7.70999 10.3664C7.90457 10.5227 8.06159 10.7206 8.16948 10.9457C8.27736 11.1707 8.33336 11.4171 8.33333 11.6667C8.33285 11.9581 8.25557 12.2443 8.10927 12.4964C7.96297 12.7484 7.75283 12.9575 7.5 13.1025Z" fill="white"/>
</svg>
