<svg width="12" height="14" viewBox="0 0 12 14" fill="none" xmlns="http://www.w3.org/2000/svg">
<path d="M5.73177 0.600006C3.89377 0.600006 2.39844 2.09534 2.39844 3.93334V5.93334H1.73177C1.37815 5.93334 1.03901 6.07382 0.788962 6.32387C0.538913 6.57391 0.398438 6.91305 0.398438 7.26667V12.6C0.398438 12.9536 0.538913 13.2928 0.788962 13.5428C1.03901 13.7929 1.37815 13.9333 1.73177 13.9333H9.73177C10.0854 13.9333 10.4245 13.7929 10.6746 13.5428C10.9246 13.2928 11.0651 12.9536 11.0651 12.6V7.26667C11.0651 6.91305 10.9246 6.57391 10.6746 6.32387C10.4245 6.07382 10.0854 5.93334 9.73177 5.93334H9.0651V3.93334C9.0651 2.09534 7.56977 0.600006 5.73177 0.600006ZM3.73177 3.93334C3.73177 2.83067 4.6291 1.93334 5.73177 1.93334C6.83444 1.93334 7.73177 2.83067 7.73177 3.93334V5.93334H3.73177V3.93334ZM6.39844 11.082V12.6H5.0651V11.082C4.83203 10.9485 4.64487 10.7476 4.52832 10.5056C4.41177 10.2636 4.37129 9.99197 4.41223 9.72652C4.45316 9.46107 4.57358 9.21426 4.75761 9.01863C4.94165 8.823 5.18065 8.68773 5.4431 8.63067C5.63805 8.58757 5.84018 8.58877 6.0346 8.6342C6.22902 8.67962 6.41076 8.7681 6.56643 8.89312C6.72209 9.01814 6.84771 9.17651 6.93402 9.35654C7.02033 9.53658 7.06512 9.73369 7.0651 9.93334C7.06472 10.1665 7.00289 10.3954 6.88586 10.5971C6.76882 10.7988 6.6007 10.966 6.39844 11.082Z" fill="#5B5151"/>
</svg>
