<svg xmlns="http://www.w3.org/2000/svg" width="20" height="20" viewBox="0 0 20 20">
    <defs>
        <filter id="lc369yqkha" color-interpolation-filters="auto">
            <feColorMatrix in="SourceGraphic" values="0 0 0 0 1.000000 0 0 0 0 0.678431 0 0 0 0 0.364706 0 0 0 1.000000 0"/>
        </filter>
    </defs>
    <g fill="none" fill-rule="evenodd">
        <g filter="url(#lc369yqkha)" transform="translate(-85.000000, -124.000000)">
            <g>
                <g>
                    <path stroke="#979797" stroke-linecap="round" d="M5.348 4.985l-5.031 8.65c-.883 1.51.184 3.42 1.908 3.42h14.5c1.736 0 2.787-1.928 1.91-3.414L11.182 1.098c-.86-1.457-2.941-1.473-3.815.01L6.713 2.27" transform="translate(85.000000, 124.000000) translate(0.500000, 1.500000)"/>
                    <path fill="#979797" d="M10.145 13.571c0 .37-.3.67-.67.67-.37 0-.67-.3-.67-.67 0-.37.3-.67.67-.67.37 0 .67.3.67.67" transform="translate(85.000000, 124.000000) translate(0.500000, 1.500000)"/>
                    <path stroke="#979797" stroke-linecap="round" d="M9.458 11.116L9.458 5.186" transform="translate(85.000000, 124.000000) translate(0.500000, 1.500000)"/>
                </g>
            </g>
        </g>
    </g>
</svg>
