<svg width="8" height="8" viewBox="0 0 8 8" fill="none" xmlns="http://www.w3.org/2000/svg">
<path d="M7.62917 7.0375L6.2125 5.625C6.66958 5.04269 6.91759 4.32361 6.91667 3.58334C6.91667 2.92406 6.72117 2.2796 6.3549 1.73143C5.98863 1.18327 5.46803 0.756029 4.85895 0.503736C4.24986 0.251444 3.57964 0.185433 2.93303 0.314051C2.28643 0.442668 1.69249 0.760137 1.22631 1.22631C0.760137 1.69249 0.442668 2.28643 0.314051 2.93303C0.185433 3.57964 0.251444 4.24986 0.503736 4.85895C0.756029 5.46803 1.18327 5.98863 1.73143 6.3549C2.2796 6.72117 2.92406 6.91667 3.58334 6.91667C4.32361 6.91759 5.04269 6.66958 5.625 6.2125L7.0375 7.62917C7.07624 7.66822 7.12232 7.69922 7.17309 7.72037C7.22387 7.74153 7.27833 7.75242 7.33334 7.75242C7.38834 7.75242 7.4428 7.74153 7.49358 7.72037C7.54435 7.69922 7.59043 7.66822 7.62917 7.62917C7.66822 7.59043 7.69922 7.54435 7.72037 7.49358C7.74153 7.4428 7.75242 7.38834 7.75242 7.33334C7.75242 7.27833 7.74153 7.22387 7.72037 7.17309C7.69922 7.12232 7.66822 7.07624 7.62917 7.0375ZM1.08333 3.58334C1.08333 3.08888 1.22996 2.60553 1.50466 2.19441C1.77936 1.78329 2.16981 1.46286 2.62663 1.27364C3.08344 1.08442 3.58611 1.03491 4.07106 1.13137C4.55601 1.22783 5.00147 1.46594 5.3511 1.81557C5.70073 2.1652 5.93884 2.61066 6.0353 3.09561C6.13176 3.58056 6.08225 4.08323 5.89303 4.54004C5.70381 4.99686 5.38338 5.38731 4.97226 5.66201C4.56114 5.93671 4.07779 6.08334 3.58334 6.08334C2.92029 6.08334 2.28441 5.81994 1.81557 5.3511C1.34673 4.88226 1.08333 4.24638 1.08333 3.58334Z" fill="#00A595"/>
</svg>
