<svg width="19" height="14" viewBox="0 0 19 14" fill="none" xmlns="http://www.w3.org/2000/svg">
<path d="M4.37579 13.125C4.37579 13.2907 4.30994 13.4497 4.19273 13.5669C4.07552 13.6841 3.91655 13.75 3.75079 13.75C3.58503 13.75 3.42606 13.6841 3.30885 13.5669C3.19164 13.4497 3.12579 13.2907 3.12579 13.125V2.13372L1.69329 3.56747C1.63518 3.62558 1.56619 3.67168 1.49027 3.70313C1.41434 3.73458 1.33297 3.75076 1.25079 3.75076C1.16861 3.75076 1.08723 3.73458 1.01131 3.70313C0.935386 3.67168 0.866399 3.62558 0.808289 3.56747C0.75018 3.50936 0.704084 3.44038 0.672635 3.36445C0.641187 3.28853 0.625 3.20715 0.625 3.12497C0.625 3.04279 0.641187 2.96142 0.672635 2.88549C0.704084 2.80957 0.75018 2.74058 0.80829 2.68247L3.30829 0.183724L3.31704 0.174974C3.43454 0.0608528 3.59229 -0.00235761 3.75608 -0.000953666C3.91987 0.000450274 4.07651 0.0663552 4.19204 0.182474L6.69204 2.68247C6.75015 2.7405 6.79626 2.80941 6.82774 2.88526C6.85922 2.9611 6.87545 3.04241 6.87551 3.12453C6.87557 3.20665 6.85945 3.28798 6.82808 3.36388C6.79671 3.43977 6.75069 3.50874 6.69266 3.56685C6.63464 3.62496 6.56573 3.67107 6.48988 3.70255C6.41403 3.73403 6.33273 3.75026 6.25061 3.75032C6.16849 3.75038 6.08716 3.73426 6.01126 3.70289C5.93537 3.67152 5.8664 3.6255 5.80829 3.56747L4.37579 2.13372V13.125ZM8.75079 1.87497C8.75079 1.70921 8.81664 1.55024 8.93385 1.43303C9.05106 1.31582 9.21003 1.24997 9.37579 1.24997H18.1258C18.2915 1.24997 18.4505 1.31582 18.5677 1.43303C18.6849 1.55024 18.7508 1.70921 18.7508 1.87497C18.7508 2.04073 18.6849 2.19971 18.5677 2.31692C18.4505 2.43413 18.2915 2.49997 18.1258 2.49997H9.37579C9.21003 2.49997 9.05106 2.43413 8.93385 2.31692C8.81664 2.19971 8.75079 2.04073 8.75079 1.87497ZM9.37579 4.99997C9.21003 4.99997 9.05106 5.06582 8.93385 5.18303C8.81664 5.30024 8.75079 5.45921 8.75079 5.62497C8.75079 5.79073 8.81664 5.94971 8.93385 6.06692C9.05106 6.18413 9.21003 6.24997 9.37579 6.24997H15.6258C15.7915 6.24997 15.9505 6.18413 16.0677 6.06692C16.1849 5.94971 16.2508 5.79073 16.2508 5.62497C16.2508 5.45921 16.1849 5.30024 16.0677 5.18303C15.9505 5.06582 15.7915 4.99997 15.6258 4.99997H9.37579ZM9.37579 8.74997C9.21003 8.74997 9.05106 8.81582 8.93385 8.93303C8.81664 9.05024 8.75079 9.20921 8.75079 9.37497C8.75079 9.54073 8.81664 9.69971 8.93385 9.81692C9.05106 9.93413 9.21003 9.99997 9.37579 9.99997H13.1258C13.2915 9.99997 13.4505 9.93413 13.5677 9.81692C13.6849 9.69971 13.7508 9.54073 13.7508 9.37497C13.7508 9.20921 13.6849 9.05024 13.5677 8.93303C13.4505 8.81582 13.2915 8.74997 13.1258 8.74997H9.37579ZM9.37579 12.5C9.21003 12.5 9.05106 12.5658 8.93385 12.683C8.81664 12.8002 8.75079 12.9592 8.75079 13.125C8.75079 13.2907 8.81664 13.4497 8.93385 13.5669C9.05106 13.6841 9.21003 13.75 9.37579 13.75H10.6258C10.7915 13.75 10.9505 13.6841 11.0677 13.5669C11.1849 13.4497 11.2508 13.2907 11.2508 13.125C11.2508 12.9592 11.1849 12.8002 11.0677 12.683C10.9505 12.5658 10.7915 12.5 10.6258 12.5H9.37579Z" fill="#5B5151"/>
</svg>
