<svg width="19" height="14" viewBox="0 0 19 14" fill="none" xmlns="http://www.w3.org/2000/svg">
<path d="M4.37579 13.375C4.37579 13.5407 4.30994 13.6997 4.19273 13.8169C4.07552 13.9341 3.91655 14 3.75079 14C3.58503 14 3.42606 13.9341 3.30885 13.8169C3.19164 13.6997 3.12579 13.5407 3.12579 13.375V2.38372L1.69329 3.81747C1.63518 3.87558 1.56619 3.92168 1.49027 3.95313C1.41434 3.98458 1.33297 4.00076 1.25079 4.00076C1.08482 4.00076 0.925648 3.93483 0.80829 3.81747C0.690931 3.70012 0.625 3.54094 0.625 3.37497C0.625 3.209 0.690931 3.04983 0.80829 2.93247L3.30829 0.433724L3.31704 0.424974C3.43454 0.310853 3.59229 0.247642 3.75608 0.249046C3.91987 0.25045 4.07651 0.316355 4.19204 0.432474L6.69204 2.93247C6.75015 2.9905 6.79626 3.05941 6.82774 3.13526C6.85922 3.2111 6.87545 3.29241 6.87551 3.37453C6.87557 3.45665 6.85945 3.53798 6.82808 3.61388C6.79671 3.68977 6.75069 3.75874 6.69266 3.81685C6.63464 3.87496 6.56573 3.92107 6.48988 3.95255C6.41403 3.98403 6.33273 4.00026 6.25061 4.00032C6.16849 4.00038 6.08716 3.98426 6.01126 3.95289C5.93537 3.92152 5.8664 3.8755 5.80829 3.81747L4.37579 2.38372V13.375ZM9.37579 1.49997C9.21003 1.49997 9.05106 1.43413 8.93385 1.31692C8.81664 1.19971 8.75079 1.04073 8.75079 0.874974C8.75079 0.709213 8.81664 0.550242 8.93385 0.433032C9.05106 0.315822 9.21003 0.249974 9.37579 0.249974H10.6258C10.7915 0.249974 10.9505 0.315822 11.0677 0.433032C11.1849 0.550242 11.2508 0.709213 11.2508 0.874974C11.2508 1.04073 11.1849 1.19971 11.0677 1.31692C10.9505 1.43413 10.7915 1.49997 10.6258 1.49997H9.37579ZM9.37579 5.24997C9.21003 5.24997 9.05106 5.18413 8.93385 5.06692C8.81664 4.94971 8.75079 4.79073 8.75079 4.62497C8.75079 4.45921 8.81664 4.30024 8.93385 4.18303C9.05106 4.06582 9.21003 3.99997 9.37579 3.99997H13.1258C13.2915 3.99997 13.4505 4.06582 13.5677 4.18303C13.6849 4.30024 13.7508 4.45921 13.7508 4.62497C13.7508 4.79073 13.6849 4.94971 13.5677 5.06692C13.4505 5.18413 13.2915 5.24997 13.1258 5.24997H9.37579ZM9.37579 8.99997C9.21003 8.99997 9.05106 8.93413 8.93385 8.81692C8.81664 8.69971 8.75079 8.54073 8.75079 8.37497C8.75079 8.20921 8.81664 8.05024 8.93385 7.93303C9.05106 7.81582 9.21003 7.74997 9.37579 7.74997H15.6258C15.7915 7.74997 15.9505 7.81582 16.0677 7.93303C16.1849 8.05024 16.2508 8.20921 16.2508 8.37497C16.2508 8.54073 16.1849 8.69971 16.0677 8.81692C15.9505 8.93413 15.7915 8.99997 15.6258 8.99997H9.37579ZM8.75079 12.125C8.75079 12.2907 8.81664 12.4497 8.93385 12.5669C9.05106 12.6841 9.21003 12.75 9.37579 12.75H18.1258C18.2915 12.75 18.4505 12.6841 18.5677 12.5669C18.6849 12.4497 18.7508 12.2907 18.7508 12.125C18.7508 11.9592 18.6849 11.8002 18.5677 11.683C18.4505 11.5658 18.2915 11.5 18.1258 11.5H9.37579C9.21003 11.5 9.05106 11.5658 8.93385 11.683C8.81664 11.8002 8.75079 11.9592 8.75079 12.125Z" fill="#5B5151"/>
</svg>
