<svg width="14" height="13" viewBox="0 0 14 13" fill="none" xmlns="http://www.w3.org/2000/svg">
<path d="M13.1887 4.51739L9.22155 3.94083L7.44811 0.345514C7.39967 0.247076 7.31998 0.167389 7.22155 0.118951C6.97467 -0.00292395 6.67467 0.0986386 6.55123 0.345514L4.77779 3.94083L0.810601 4.51739C0.701226 4.53302 0.601226 4.58458 0.524663 4.6627C0.432103 4.75784 0.381099 4.88583 0.382856 5.01855C0.384614 5.15127 0.438991 5.27787 0.534038 5.37052L3.40435 8.16896L2.72623 12.1205C2.71033 12.2124 2.7205 12.307 2.75559 12.3934C2.79068 12.4799 2.84929 12.5547 2.92477 12.6095C3.00025 12.6644 3.08958 12.6969 3.18263 12.7036C3.27569 12.7102 3.36873 12.6906 3.45123 12.6471L6.99967 10.7815L10.5481 12.6471C10.645 12.6986 10.7575 12.7158 10.8653 12.6971C11.1372 12.6502 11.32 12.3924 11.2731 12.1205L10.595 8.16896L13.4653 5.37052C13.5434 5.29395 13.595 5.19395 13.6106 5.08458C13.6528 4.81114 13.4622 4.55802 13.1887 4.51739Z" fill="#EEAB34"/>
</svg>
