<svg width="19" height="20" viewBox="0 0 19 20" fill="none" xmlns="http://www.w3.org/2000/svg">
<path d="M15.0885 16.6301C13.8014 17.8124 12.1979 18.5944 10.4738 18.8806C8.74966 19.1668 6.97951 18.9448 5.37944 18.2417C3.77938 17.5386 2.41865 16.3849 1.46337 14.9213C0.508092 13.4578 -0.000391364 11.7478 2.26006e-07 10.0001H1.5C1.49989 11.5107 1.95597 12.9862 2.80851 14.2333C3.66106 15.4803 4.87032 16.4409 6.27796 16.9892C7.68561 17.5375 9.226 17.6479 10.6975 17.306C12.1689 16.9641 13.5028 16.1858 14.5245 15.0731H12.345C12.1461 15.0731 11.9553 14.994 11.8147 14.8534C11.674 14.7127 11.595 14.522 11.595 14.3231C11.595 14.1241 11.674 13.9334 11.8147 13.7927C11.9553 13.6521 12.1461 13.5731 12.345 13.5731H15.8385C16.0374 13.5731 16.2282 13.6521 16.3688 13.7927C16.5095 13.9334 16.5885 14.1241 16.5885 14.3231V17.8136C16.5885 18.0125 16.5095 18.2032 16.3688 18.3439C16.2282 18.4845 16.0374 18.5636 15.8385 18.5636C15.6396 18.5636 15.4488 18.4845 15.3082 18.3439C15.1675 18.2032 15.0885 18.0125 15.0885 17.8136V16.6286V16.6301ZM3.4755 4.92856H5.655C5.85391 4.92856 6.04468 5.00757 6.18533 5.14823C6.32598 5.28888 6.405 5.47964 6.405 5.67856C6.405 5.87747 6.32598 6.06823 6.18533 6.20889C6.04468 6.34954 5.85391 6.42856 5.655 6.42856H2.16C1.96109 6.42856 1.77032 6.34954 1.62967 6.20889C1.48902 6.06823 1.41 5.87747 1.41 5.67856V2.18506C1.41 1.98614 1.48902 1.79538 1.62967 1.65473C1.77032 1.51407 1.96109 1.43506 2.16 1.43506C2.35891 1.43506 2.54968 1.51407 2.69033 1.65473C2.83098 1.79538 2.91 1.98614 2.91 2.18506V3.37006C4.19693 2.18626 5.80084 1.40299 7.52571 1.11597C9.25059 0.828954 11.0217 1.05062 12.6227 1.75387C14.2236 2.45712 15.585 3.61151 16.5405 5.07595C17.496 6.5404 18.0042 8.25147 18.003 10.0001H16.503C16.5031 8.48921 16.047 7.01354 15.1942 5.76634C14.3415 4.51914 13.132 3.55856 11.7241 3.01041C10.3162 2.46226 8.77553 2.35211 7.30396 2.69437C5.83239 3.03664 4.4985 3.81536 3.477 4.92856H3.4755Z" fill="#5B5151"/>
</svg>
