<svg width="12" height="18" viewBox="0 0 12 18" fill="none" xmlns="http://www.w3.org/2000/svg">
<path d="M9.96827 12.15C10.2303 11.9253 10.6249 11.9557 10.8495 12.2178C11.0742 12.4799 11.0438 12.8744 10.7818 13.0991L6.40676 16.8491C6.1727 17.0497 5.82732 17.0497 5.59327 16.8491L1.21827 13.0991C0.956188 12.8744 0.925837 12.4799 1.15048 12.2178C1.37511 11.9557 1.76968 11.9253 2.03176 12.15L6.00001 15.5513L9.96827 12.15Z" fill="#5B5151" stroke="#5B5151"/>
<path d="M9.96827 5.84904C10.2303 6.07367 10.6249 6.04332 10.8495 5.78125C11.0742 5.51917 11.0438 5.1246 10.7818 4.89997L6.40676 1.14997C6.1727 0.949346 5.82732 0.949346 5.59327 1.14997L1.21827 4.89997C0.956188 5.1246 0.925837 5.51917 1.15048 5.78125C1.37511 6.04332 1.76968 6.07367 2.03176 5.84904L6.00001 2.44767L9.96827 5.84904Z" fill="#5B5151" stroke="#5B5151"/>
</svg>
