<svg width="24" height="24" viewBox="0 0 24 24" fill="none" xmlns="http://www.w3.org/2000/svg">
<path d="M12.2237 0.647949H11.7783C5.62497 0.647949 0.636719 5.73052 0.636719 12.0002V12.0039C0.636719 18.2735 5.62497 23.3561 11.7783 23.3561H12.2237C18.377 23.3561 23.3652 18.2735 23.3652 12.0039V12.0002C23.3652 5.73052 18.377 0.647949 12.2237 0.647949Z" fill="#EAECF0"/>
<path d="M12.2227 24H11.7773C8.65378 24 5.65817 22.7357 3.4495 20.4853C1.24082 18.2348 0 15.1826 0 12C0 8.8174 1.24082 5.76516 3.4495 3.51472C5.65817 1.26428 8.65378 0 11.7773 0H12.2227C15.3462 0 18.3418 1.26428 20.5505 3.51472C22.7592 5.76516 24 8.8174 24 12C24 15.1826 22.7592 18.2348 20.5505 20.4853C18.3418 22.7357 15.3462 24 12.2227 24ZM11.7773 1.29186C8.99004 1.29186 6.31692 2.42003 4.34602 4.4282C2.37512 6.43636 1.26788 9.16002 1.26788 12C1.26788 14.84 2.37512 17.5636 4.34602 19.5718C6.31692 21.58 8.99004 22.7081 11.7773 22.7081H12.2227C15.01 22.7081 17.6831 21.58 19.654 19.5718C21.6249 17.5636 22.7321 14.84 22.7321 12C22.7321 9.16002 21.6249 6.43636 19.654 4.4282C17.6831 2.42003 15.01 1.29186 12.2227 1.29186H11.7773Z" fill="white"/>
<g style="mix-blend-mode:overlay">
<path d="M12.2219 3.37082C14.4681 3.37082 16.6223 4.28 18.2106 5.89833C19.7989 7.51667 20.6912 9.71161 20.6912 12.0003C20.6912 14.289 19.7989 16.4839 18.2106 18.1022C16.6223 19.7206 14.4681 20.6297 12.2219 20.6297H11.7765C9.53032 20.6297 7.37611 19.7206 5.78781 18.1022C4.1995 16.4839 3.3072 14.289 3.3072 12.0003C3.3072 9.71161 4.1995 7.51667 5.78781 5.89833C7.37611 4.28 9.53032 3.37082 11.7765 3.37082H12.2219ZM12.2219 2.96826H11.7765C9.42553 2.96826 7.17083 3.91985 5.50843 5.61368C3.84603 7.30751 2.91211 9.60484 2.91211 12.0003C2.91211 14.3957 3.84603 16.6931 5.50843 18.3869C7.17083 20.0807 9.42553 21.0323 11.7765 21.0323H12.2219C14.5729 21.0323 16.8276 20.0807 18.49 18.3869C20.1524 16.6931 21.0863 14.3957 21.0863 12.0003C21.0863 9.60484 20.1524 7.30751 18.49 5.61368C16.8276 3.91985 14.5729 2.96826 12.2219 2.96826Z" fill="#A1A1A1"/>
</g>
<path d="M13.7211 12.3112L16.7166 9.25909L15.0141 7.52441L12.0186 10.5766L9.0267 7.52441L7.32422 9.25909L10.3161 12.3112L7.32422 15.3597L9.0267 17.0944L12.0186 14.0459L15.0141 17.0944L16.7166 15.3597L13.7211 12.3112Z" fill="white"/>
</svg>
