<svg width="17" height="17" viewBox="0 0 17 17" fill="none" xmlns="http://www.w3.org/2000/svg">
<path d="M8.5 1C4.36429 1 1 4.36429 1 8.5C1 12.6357 4.36429 16 8.5 16C12.6357 16 16 12.6357 16 8.5C16 4.36429 12.6357 1 8.5 1ZM8.5 15.2858C4.75857 15.2858 1.71418 12.2416 1.71418 8.5C1.71418 4.75857 4.75854 1.71418 8.5 1.71418C12.2415 1.71418 15.2858 4.75842 15.2858 8.5C15.2858 12.2414 12.2415 15.2858 8.5 15.2858Z" fill="#9DA6AB" stroke="#9DA6AB" stroke-width="0.3"/>
<path d="M6.17768 4.48256L6.25198 4.61287C6.35345 4.55501 6.47879 4.58939 6.53603 4.6891C6.5929 4.78888 6.55834 4.91497 6.45911 4.97157L6.4589 4.97169C5.20047 5.69225 4.41981 7.04346 4.41981 8.49982C4.41981 10.7483 6.24905 12.5783 8.49828 12.5783C10.7475 12.5783 12.5767 10.7483 12.5767 8.49982C12.5767 7.04358 11.7961 5.69233 10.5384 4.97259L10.5382 4.97253C10.4388 4.91574 10.4046 4.78902 10.4612 4.69018L10.4613 4.68996C10.5187 4.58937 10.6439 4.55543 10.7444 4.61296L10.7898 4.63892C12.1486 5.43785 12.9914 6.91292 12.9914 8.49981C12.9914 10.9771 10.9755 12.9928 8.49843 12.9928C6.02114 12.9928 4.00547 10.9769 4.00547 8.49981C4.00547 6.89531 4.86697 5.40512 6.25216 4.61277L6.17768 4.48256ZM6.17768 4.48256C4.74549 5.30181 3.85547 6.84185 3.85547 8.49981C3.85547 11.0598 5.9383 13.1428 8.49843 13.1428C11.0584 13.1428 13.1414 11.0599 13.1414 8.49981C13.1414 6.84197 12.2514 5.30205 10.8192 4.48256L10.8189 4.48277C10.6467 4.38423 10.4297 4.44271 10.331 4.61562C10.2332 4.78638 10.2924 5.00485 10.4639 5.10278C11.6746 5.79563 12.4267 7.09702 12.4267 8.49982C12.4267 10.6655 10.6646 12.4283 8.49828 12.4283C6.33191 12.4283 4.56981 10.6655 4.56981 8.49982C4.56981 7.09692 5.32195 5.79554 6.53343 5.10186C6.70491 5.00405 6.7641 4.78619 6.66628 4.6147C6.56763 4.44251 6.35049 4.38403 6.17768 4.48256Z" fill="#9DA6AB" stroke="#9DA6AB" stroke-width="0.3"/>
<path d="M8.7089 5.64274C8.7089 5.75708 8.61606 5.84992 8.50171 5.84992C8.38734 5.84992 8.29453 5.75705 8.29453 5.64286V3.50001C8.29453 3.38566 8.38737 3.29282 8.50171 3.29282C8.61606 3.29282 8.7089 3.38566 8.7089 3.50001V5.64274Z" fill="#9DA6AB" stroke="#9DA6AB" stroke-width="0.3"/>
</svg>
