<svg width="19" height="19" viewBox="0 0 19 19" fill="none" xmlns="http://www.w3.org/2000/svg">
<path id="Path" d="M11.7303 9.49865L18.5321 2.71174C19.1524 2.09139 19.1524 1.08561 18.5321 0.465262C17.9118 -0.155087 16.9062 -0.155087 16.2859 0.465262L9.5 7.26799L2.71406 0.465262C2.0938 -0.155087 1.08816 -0.155087 0.467895 0.465262C-0.152365 1.08561 -0.152366 2.09139 0.467895 2.71174L7.26966 9.49865L0.467895 16.2856C0.16844 16.5826 0 16.987 0 17.4088C0 17.8306 0.16844 18.235 0.467895 18.532C0.764905 18.8315 1.16921 19 1.59098 19C2.01275 19 2.41705 18.8315 2.71406 18.532L9.5 11.7293L16.2859 18.532C16.583 18.8315 16.9873 19 17.409 19C17.8308 19 18.2351 18.8315 18.5321 18.532C18.8316 18.235 19 17.8306 19 17.4088C19 16.987 18.8316 16.5826 18.5321 16.2856L11.7303 9.49865Z" fill="#5B5151"/>
</svg>
