<svg width="10" height="12" viewBox="0 0 10 12" fill="none" xmlns="http://www.w3.org/2000/svg">
<path d="M2.5 0.999847H7.25L9.5 3.24985V9.49985" stroke="#9DA6AB" stroke-width="0.8125" stroke-linecap="round" stroke-linejoin="round"/>
<path d="M0.5 10.2498V3.24985C0.5 3.05094 0.579018 2.86017 0.71967 2.71952C0.860322 2.57886 1.05109 2.49985 1.25 2.49985H6.126C6.20554 2.49992 6.28179 2.53157 6.338 2.58785L7.912 4.16185C7.93998 4.1898 7.96217 4.22301 7.97727 4.25956C7.99237 4.29612 8.0001 4.3353 8 4.37485V10.2498C8 10.4488 7.92098 10.6395 7.78033 10.7802C7.63968 10.9208 7.44891 10.9998 7.25 10.9998H1.25C1.05109 10.9998 0.860322 10.9208 0.71967 10.7802C0.579018 10.6395 0.5 10.4488 0.5 10.2498Z" stroke="#9DA6AB" stroke-width="0.8125" stroke-linecap="round" stroke-linejoin="round"/>
<path d="M6 4.19978V2.67678C6.00006 2.64181 6.01048 2.60765 6.02993 2.57861C6.04938 2.54956 6.077 2.52692 6.10931 2.51355C6.14161 2.50018 6.17715 2.49667 6.21144 2.50348C6.24574 2.51028 6.27725 2.52709 6.302 2.55178L7.948 4.19778C7.97294 4.22243 7.98996 4.25396 7.9969 4.28834C8.00385 4.32271 8.00039 4.35838 7.98698 4.39078C7.97357 4.42318 7.95081 4.45086 7.9216 4.47027C7.8924 4.48968 7.85807 4.49995 7.823 4.49978H6.3C6.22044 4.49978 6.14413 4.46817 6.08787 4.41191C6.03161 4.35565 6 4.27934 6 4.19978Z" fill="#9DA6AB" stroke="#9DA6AB" stroke-width="0.8125" stroke-linecap="round" stroke-linejoin="round"/>
</svg>
