<svg width="17" height="19" viewBox="0 0 17 19" fill="none" xmlns="http://www.w3.org/2000/svg">
<path d="M5.42969 6.78572H6.78683V14.9286H5.42969V6.78572Z" fill="#5B5151"/>
<path d="M9.5 6.78572H10.8571V14.9286H9.5V6.78572Z" fill="#5B5151"/>
<path d="M0 2.71428V4.07142H1.35714V17.6429C1.35714 18.0028 1.50013 18.348 1.75464 18.6025C2.00915 18.857 2.35435 19 2.71429 19H13.5714C13.9314 19 14.2766 18.857 14.5311 18.6025C14.7856 18.348 14.9286 18.0028 14.9286 17.6429V4.07142H16.2857V2.71428H0ZM2.71429 17.6429V4.07142H13.5714V17.6429H2.71429Z" fill="#5B5151"/>
<path d="M5.42969 0H10.8583V1.35714H5.42969V0Z" fill="#5B5151"/>
</svg>
