<svg width="13" height="15" viewBox="0 0 13 15" fill="none" xmlns="http://www.w3.org/2000/svg">
<path d="M4.28516 5.35712H5.35658V11.7857H4.28516V5.35712Z" fill="#9DA6AB"/>
<path d="M7.5 5.35712H8.57143V11.7857H7.5V5.35712Z" fill="#9DA6AB"/>
<path d="M0 2.14288V3.21431H1.07143V13.9286C1.07143 14.2128 1.18431 14.4853 1.38524 14.6862C1.58617 14.8871 1.8587 15 2.14286 15H10.7143C10.9984 15 11.271 14.8871 11.4719 14.6862C11.6728 14.4853 11.7857 14.2128 11.7857 13.9286V3.21431H12.8571V2.14288H0ZM2.14286 13.9286V3.21431H10.7143V13.9286H2.14286Z" fill="#9DA6AB"/>
<path d="M4.28516 0H8.57087V1.07143H4.28516V0Z" fill="#9DA6AB"/>
</svg>
