<svg width="18" height="15" viewBox="0 0 18 15" fill="none" xmlns="http://www.w3.org/2000/svg">
<path d="M6.25 3.875H14.6272L12.1611 1.40963L13.125 0.4375L17.25 4.5625L13.125 8.6875L12.1611 7.71469L14.6251 5.25H6.25C5.15598 5.25 4.10677 5.6846 3.33318 6.45818C2.5596 7.23177 2.125 8.28098 2.125 9.375C2.125 10.469 2.5596 11.5182 3.33318 12.2918C4.10677 13.0654 5.15598 13.5 6.25 13.5H11.75V14.875H6.25C4.79131 14.875 3.39236 14.2955 2.36091 13.2641C1.32946 12.2326 0.75 10.8337 0.75 9.375C0.75 7.91631 1.32946 6.51736 2.36091 5.48591C3.39236 4.45446 4.79131 3.875 6.25 3.875V3.875Z" fill="#E37D38"/>
</svg>
