<svg width="14" height="13" viewBox="0 0 14 13" fill="none" xmlns="http://www.w3.org/2000/svg">
<g id="edit copy">
<path id="Path" d="M12.6556 7.25577C12.4819 7.25577 12.3411 7.39657 12.3411 7.57029V10.363C12.3405 10.8838 11.9185 11.3059 11.3976 11.3065H2.57258C2.05166 11.3059 1.62965 10.8838 1.62903 10.363V2.167C1.62965 1.64608 2.05166 1.22407 2.57258 1.22345H5.36514C5.53886 1.22345 5.67966 1.08266 5.67966 0.908938C5.67966 0.735216 5.53886 0.594421 5.36514 0.594421H2.57258C1.70447 0.595404 1.00098 1.29889 1 2.167V10.363C1.00098 11.2311 1.70447 11.9346 2.57258 11.9356H11.3976C12.2657 11.9346 12.9692 11.2311 12.9702 10.363V7.57041C12.9702 7.39669 12.8294 7.25577 12.6556 7.25577Z" fill="#9DA6AB" stroke="#9DA6AB" stroke-width="0.4"/>
<path id="Path_2" d="M5.91797 5.60076L10.5103 1.00833L11.9913 2.48938L7.39902 7.08181L5.91797 5.60076Z" fill="#9DA6AB"/>
<path id="Path_3" d="M5.16797 7.83111L6.80468 7.37776L5.62131 6.1944L5.16797 7.83111Z" fill="#9DA6AB"/>
<path id="Path_4" d="M12.4026 0.229898C12.0953 -0.0766326 11.5979 -0.0766326 11.2906 0.229898L10.957 0.563457L12.4381 2.04451L12.7716 1.71095C13.0783 1.40368 13.0783 0.90623 12.7716 0.598963L12.4026 0.229898Z" fill="#9DA6AB"/>
</g>
</svg>
