<svg width="25" height="25" viewBox="0 0 25 25" fill="none" xmlns="http://www.w3.org/2000/svg">
<path fill-rule="evenodd" clip-rule="evenodd" d="M20.5368 3.58717C15.8471 -1.1025 8.24852 -1.11005 3.56792 3.57055C-1.11571 8.25569 -1.11118 15.8513 3.58151 20.541C8.27118 25.2306 15.8713 25.2367 20.5504 20.5561C25.2325 15.8755 25.228 8.27683 20.5368 3.58717ZM14.4908 17.1109L11.9414 14.5614L9.39186 17.1109C8.35123 18.1516 7.56886 19.0578 6.32735 17.8178C5.08885 16.5778 5.99053 15.7954 7.0357 14.7533L9.58519 12.2053L7.0357 9.65579C5.99356 8.61515 5.08885 7.83279 6.32735 6.59127C7.56886 5.35278 8.35123 6.25748 9.39186 7.29963L11.9414 9.8461L14.4908 7.29963C15.533 6.25899 16.3108 5.35127 17.5523 6.59127C18.7939 7.83279 17.8891 8.61515 16.847 9.65579L14.2975 12.2038L16.847 14.7517C17.8876 15.7954 18.7939 16.5778 17.5523 17.8178C16.3138 19.0578 15.533 18.1516 14.4908 17.1109Z" fill="#E85E63"/>
</svg>
