<svg width="10" height="12" viewBox="0 0 10 12" fill="none" xmlns="http://www.w3.org/2000/svg">
<path d="M1 2V10C1 10.2652 1.10536 10.5196 1.29289 10.7071C1.48043 10.8946 1.73478 11 2 11H8C8.26522 11 8.51957 10.8946 8.70711 10.7071C8.89464 10.5196 9 10.2652 9 10V4.171C8.99998 4.03778 8.97335 3.90591 8.92166 3.78312C8.86997 3.66034 8.79427 3.54912 8.699 3.456L6.479 1.285C6.29218 1.10233 6.04129 1.00003 5.78 1H2C1.73478 1 1.48043 1.10536 1.29289 1.29289C1.10536 1.48043 1 1.73478 1 2V2Z" stroke="#E37D38" stroke-width="0.8" stroke-linecap="round" stroke-linejoin="round"/>
<path d="M6 1V3C6 3.26522 6.10536 3.51957 6.29289 3.70711C6.48043 3.89464 6.73478 4 7 4H9" stroke="#E37D38" stroke-width="0.8" stroke-linejoin="round"/>
</svg>
