<svg width="12" height="10" viewBox="0 0 12 10" fill="none" xmlns="http://www.w3.org/2000/svg">
<path d="M11 8.5V3.5C11 3.23478 10.8946 2.98043 10.7071 2.79289C10.5196 2.60536 10.2652 2.5 10 2.5H6.618C6.43225 2.49999 6.25018 2.44825 6.09219 2.35058C5.93419 2.2529 5.80653 2.11316 5.7235 1.947L5.2765 1.053C5.19343 0.886767 5.06569 0.746969 4.9076 0.649289C4.74951 0.55161 4.56733 0.499914 4.3815 0.5H2C1.73478 0.5 1.48043 0.605357 1.29289 0.792893C1.10536 0.98043 1 1.23478 1 1.5V8.5C1 8.76522 1.10536 9.01957 1.29289 9.20711C1.48043 9.39464 1.73478 9.5 2 9.5H10C10.2652 9.5 10.5196 9.39464 10.7071 9.20711C10.8946 9.01957 11 8.76522 11 8.5Z" stroke="#E37D38" stroke-linecap="round" stroke-linejoin="round"/>
</svg>
