<svg width="12" height="12" viewBox="0 0 12 12" fill="none" xmlns="http://www.w3.org/2000/svg">
<path d="M10.5671 4.85544V5.18455C10.2095 4.89739 9.75597 4.72501 9.26273 4.72501C8.11197 4.72501 7.17578 5.66122 7.17578 6.81195C7.17578 7.96269 8.11199 8.8989 9.26273 8.8989C9.75597 8.8989 10.2095 8.72651 10.5671 8.43936V8.76847H11.3497V4.85544H10.5671ZM9.2627 8.1163C8.54348 8.1163 7.95836 7.53115 7.95836 6.81195C7.95836 6.0927 8.5435 5.50761 9.2627 5.50761C9.98191 5.50761 10.567 6.09275 10.567 6.81195C10.5671 7.53118 9.98193 8.1163 9.2627 8.1163Z" fill="#E37D38"/>
<path d="M12 9.68143H0V10.464H12V9.68143Z" fill="#E37D38"/>
<path d="M3.91274 1.53595L0.730469 8.76846H1.58545L2.6759 6.2902H5.14957L6.24002 8.76846H7.095L3.91274 1.53595ZM3.02024 5.5076L3.91272 3.4792L4.8052 5.5076H3.02024Z" fill="#E37D38"/>
</svg>
