<svg width="12" height="12" viewBox="0 0 12 12" fill="none" xmlns="http://www.w3.org/2000/svg">
<path d="M2 1.99994V9.99994C2 10.2652 2.10536 10.5195 2.29289 10.707C2.48043 10.8946 2.73478 10.9999 3 10.9999H9C9.26522 10.9999 9.51957 10.8946 9.70711 10.707C9.89464 10.5195 10 10.2652 10 9.99994V4.17094C9.99998 4.03772 9.97335 3.90584 9.92166 3.78306C9.86997 3.66028 9.79427 3.54906 9.699 3.45594L7.479 1.28494C7.29218 1.10227 7.04129 0.999971 6.78 0.999939H3C2.73478 0.999939 2.48043 1.1053 2.29289 1.29283C2.10536 1.48037 2 1.73472 2 1.99994V1.99994Z" stroke="#E37D38" stroke-width="0.8" stroke-linecap="round" stroke-linejoin="round"/>
<path d="M7 0.999939V2.99994C7 3.26516 7.10536 3.51951 7.29289 3.70705C7.48043 3.89458 7.73478 3.99994 8 3.99994H10" stroke="#E37D38" stroke-width="0.8" stroke-linejoin="round"/>
<g clip-path="url(#clip0_3606_18064)">
<path d="M5.70096 4.95001C5.70096 5.14892 5.62194 5.33969 5.48129 5.48034C5.34064 5.62099 5.14987 5.70001 4.95096 5.70001C4.75205 5.70001 4.56128 5.62099 4.42063 5.48034C4.27998 5.33969 4.20096 5.14892 4.20096 4.95001C4.20096 4.7511 4.27998 4.56033 4.42063 4.41968C4.56128 4.27903 4.75205 4.20001 4.95096 4.20001C5.14987 4.20001 5.34064 4.27903 5.48129 4.41968C5.62194 4.56033 5.70096 4.7511 5.70096 4.95001ZM6.96846 6.16591C6.94033 6.15182 6.90848 6.14693 6.87741 6.15194C6.84635 6.15694 6.81764 6.17159 6.79536 6.19381L5.68236 7.60681L4.88436 6.77521C4.85555 6.75603 4.82099 6.7474 4.78654 6.75079C4.7521 6.75418 4.71988 6.76938 4.69536 6.79381L3.60156 8.10001V8.70001C3.60156 8.77958 3.63317 8.85588 3.68943 8.91214C3.74569 8.96841 3.822 9.00001 3.90156 9.00001H8.10156C8.14096 9.00001 8.17997 8.99225 8.21637 8.97718C8.25276 8.9621 8.28584 8.94 8.31369 8.91214C8.34155 8.88429 8.36365 8.85122 8.37873 8.81482C8.3938 8.77842 8.40156 8.73941 8.40156 8.70001V7.35001L6.96846 6.16591Z" fill="#E37D38"/>
</g>
<defs>
<clipPath id="clip0_3606_18064">
<rect width="4.8" height="4.8" fill="white" transform="translate(3.60156 4.20001)"/>
</clipPath>
</defs>
</svg>
