<svg width="12" height="12" viewBox="0 0 12 12" fill="none" xmlns="http://www.w3.org/2000/svg">
<path d="M3 3C3 2.73478 3.10536 2.48043 3.29289 2.29289C3.48043 2.10536 3.73478 2 4 2C4.13261 2 4.25979 1.94732 4.35355 1.85355C4.44732 1.75979 4.5 1.63261 4.5 1.5C4.5 1.36739 4.44732 1.24021 4.35355 1.14645C4.25979 1.05268 4.13261 1 4 1C3.46957 1 2.96086 1.21071 2.58579 1.58579C2.21071 1.96086 2 2.46957 2 3V4.5C2 4.76522 1.89464 5.01957 1.70711 5.20711C1.51957 5.39464 1.26522 5.5 1 5.5C0.867392 5.5 0.740215 5.55268 0.646447 5.64645C0.552678 5.74021 0.5 5.86739 0.5 6C0.5 6.13261 0.552678 6.25979 0.646447 6.35355C0.740215 6.44732 0.867392 6.5 1 6.5C1.26522 6.5 1.51957 6.60536 1.70711 6.79289C1.89464 6.98043 2 7.23478 2 7.5V9C2 9.53043 2.21071 10.0391 2.58579 10.4142C2.96086 10.7893 3.46957 11 4 11C4.13261 11 4.25979 10.9473 4.35355 10.8536C4.44732 10.7598 4.5 10.6326 4.5 10.5C4.5 10.3674 4.44732 10.2402 4.35355 10.1464C4.25979 10.0527 4.13261 10 4 10C3.73478 10 3.48043 9.89464 3.29289 9.70711C3.10536 9.51957 3 9.26522 3 9V7.5C2.99839 7.21527 2.93601 6.93416 2.81701 6.67547C2.69802 6.41679 2.52516 6.1865 2.31 6C2.52516 5.8135 2.69802 5.58321 2.81701 5.32453C2.93601 5.06584 2.99839 4.78473 3 4.5V3ZM11 5.5C10.7348 5.5 10.4804 5.39464 10.2929 5.20711C10.1054 5.01957 10 4.76522 10 4.5V3C10 2.46957 9.78929 1.96086 9.41421 1.58579C9.03914 1.21071 8.53043 1 8 1C7.86739 1 7.74021 1.05268 7.64645 1.14645C7.55268 1.24021 7.5 1.36739 7.5 1.5C7.5 1.63261 7.55268 1.75979 7.64645 1.85355C7.74021 1.94732 7.86739 2 8 2C8.26522 2 8.51957 2.10536 8.70711 2.29289C8.89464 2.48043 9 2.73478 9 3V4.5C9.00161 4.78473 9.06399 5.06584 9.18299 5.32453C9.30198 5.58321 9.47484 5.8135 9.69 6C9.47484 6.1865 9.30198 6.41679 9.18299 6.67547C9.06399 6.93416 9.00161 7.21527 9 7.5V9C9 9.26522 8.89464 9.51957 8.70711 9.70711C8.51957 9.89464 8.26522 10 8 10C7.86739 10 7.74021 10.0527 7.64645 10.1464C7.55268 10.2402 7.5 10.3674 7.5 10.5C7.5 10.6326 7.55268 10.7598 7.64645 10.8536C7.74021 10.9473 7.86739 11 8 11C8.53043 11 9.03914 10.7893 9.41421 10.4142C9.78929 10.0391 10 9.53043 10 9V7.5C10 7.23478 10.1054 6.98043 10.2929 6.79289C10.4804 6.60536 10.7348 6.5 11 6.5C11.1326 6.5 11.2598 6.44732 11.3536 6.35355C11.4473 6.25979 11.5 6.13261 11.5 6C11.5 5.86739 11.4473 5.74021 11.3536 5.64645C11.2598 5.55268 11.1326 5.5 11 5.5Z" fill="#E37D38"/>
<path d="M5.95083 9.21753L5.57828 8.93506C5.75475 8.75324 5.86913 8.58117 5.92142 8.41883C5.98024 8.26298 6.00965 8.10389 6.00965 7.94156L6.26455 8.10714H5.53906V7.11363H6.53906V7.81493C6.53906 8.07467 6.49658 8.31818 6.41161 8.54545C6.32664 8.77922 6.17305 9.00324 5.95083 9.21753ZM5.53906 4.5V3.5H6.53906V4.5H5.53906Z" fill="#E37D38"/>
</svg>
