<svg width="16" height="10" viewBox="0 0 16 10" fill="none" xmlns="http://www.w3.org/2000/svg">
<path d="M7.99479 9C11.6768 9 14.6615 5 14.6615 5C14.6615 5 11.6768 1 7.99479 1C4.31279 1 1.32812 5 1.32812 5C1.32812 5 4.31279 9 7.99479 9Z" stroke="#9DA6AB" stroke-width="1.06667" stroke-linejoin="round"/>
<path d="M7.99479 6.66668C8.43682 6.66668 8.86074 6.49108 9.1733 6.17852C9.48586 5.86596 9.66146 5.44204 9.66146 5.00001C9.66146 4.55798 9.48586 4.13406 9.1733 3.8215C8.86074 3.50894 8.43682 3.33334 7.99479 3.33334C7.55276 3.33334 7.12884 3.50894 6.81628 3.8215C6.50372 4.13406 6.32812 4.55798 6.32812 5.00001C6.32812 5.44204 6.50372 5.86596 6.81628 6.17852C7.12884 6.49108 7.55276 6.66668 7.99479 6.66668Z" stroke="#9DA6AB" stroke-width="1.33333" stroke-linejoin="round"/>
</svg>
