<svg width="18" height="15" viewBox="0 0 18 15" fill="none" xmlns="http://www.w3.org/2000/svg">
<path d="M11.75 3.875H3.37281L5.83888 1.40963L4.875 0.4375L0.75 4.5625L4.875 8.6875L5.83888 7.71469L3.37488 5.25H11.75C12.844 5.25 13.8932 5.6846 14.6668 6.45818C15.4404 7.23177 15.875 8.28098 15.875 9.375C15.875 10.469 15.4404 11.5182 14.6668 12.2918C13.8932 13.0654 12.844 13.5 11.75 13.5H6.25V14.875H11.75C13.2087 14.875 14.6076 14.2955 15.6391 13.2641C16.6705 12.2326 17.25 10.8337 17.25 9.375C17.25 7.91631 16.6705 6.51736 15.6391 5.48591C14.6076 4.45446 13.2087 3.875 11.75 3.875V3.875Z" fill="#E37D38"/>
</svg>
