<svg width="18" height="18" viewBox="0 0 18 18" fill="none" xmlns="http://www.w3.org/2000/svg">
<path d="M16.8973 16.4028C16.7606 16.2661 16.6239 16.1293 16.4872 15.9926L15.3725 14.8779C14.8221 14.3276 14.2735 13.779 13.7232 13.2286C13.0554 12.5591 12.3876 11.8913 11.7181 11.2218C10.9855 10.4892 10.2546 9.75833 9.52203 9.02572C8.78063 8.28433 8.03924 7.54293 7.29961 6.8033C6.60905 6.11274 5.91848 5.42218 5.22619 4.72988C4.64254 4.14624 4.0589 3.56259 3.47525 2.97894C3.0581 2.56179 2.64098 2.14467 2.22383 1.72752C2.02402 1.52771 1.82597 1.32966 1.62617 1.12987C1.61741 1.1211 1.60865 1.11234 1.59988 1.10358C1.47018 0.973876 1.23183 0.963361 1.10386 1.10358C0.975886 1.24379 0.965396 1.46112 1.10386 1.5996C1.24057 1.73631 1.37728 1.87302 1.51399 2.00973L2.62869 3.12443C3.17904 3.67478 3.72763 4.22337 4.27797 4.77372C4.94575 5.44149 5.61529 6.11103 6.28303 6.77878C7.01564 7.51139 7.74652 8.24227 8.47914 8.97488C9.22053 9.71627 9.96192 10.4577 10.7016 11.1973C11.3921 11.8879 12.0827 12.5784 12.775 13.2707C13.3586 13.8544 13.9423 14.438 14.5259 15.0217C14.9431 15.4388 15.3602 15.8559 15.7773 16.2731C15.9771 16.4729 16.1752 16.6709 16.375 16.8707C16.3838 16.8795 16.3925 16.8883 16.4013 16.897C16.531 17.0267 16.7693 17.0372 16.8973 16.897C17.027 16.7586 17.0358 16.5412 16.8973 16.4028Z" fill="#5B5151" stroke="#5B5151" stroke-width="0.3"/>
<path d="M1.59728 16.8969C1.73399 16.7602 1.8707 16.6235 2.00741 16.4868L3.12212 15.3721C3.67246 14.8218 4.22105 14.2732 4.7714 13.7228C5.43917 13.055 6.10871 12.3855 6.77646 11.7178C7.50907 10.9852 8.23995 10.2543 8.97256 9.52166C9.71395 8.78027 10.4553 8.03887 11.195 7.29924C11.8855 6.60868 12.5761 5.91812 13.2684 5.22582C13.852 4.64218 14.4357 4.05853 15.0193 3.47488C15.4365 3.05773 15.8536 2.64061 16.2708 2.22346C16.4706 2.02365 16.6686 1.8256 16.8684 1.62581C16.8772 1.61704 16.8859 1.60828 16.8947 1.59952C17.0244 1.46982 17.0349 1.23146 16.8947 1.10349C16.7545 0.975519 16.5372 0.96503 16.3987 1.10349L13.2246 4.27761C12.5568 4.94715 11.889 5.61492 11.2195 6.28443C10.4869 7.01704 9.75601 7.74792 9.0234 8.48053C8.28201 9.22192 7.54061 9.96332 6.80098 10.7029C6.11042 11.3935 5.41986 12.0841 4.72756 12.7764C4.14392 13.36 3.56027 13.9437 2.97662 14.5273C2.55947 14.9445 2.14235 15.3616 1.7252 15.7787C1.52539 15.9785 1.32734 16.1766 1.12755 16.3764C1.11878 16.3851 1.11002 16.3939 1.10126 16.4027C0.971557 16.5324 0.961041 16.7707 1.10126 16.8987C1.24147 17.0267 1.4588 17.0354 1.59728 16.8969V16.8969Z" fill="#5B5151" stroke="#5B5151" stroke-width="0.3"/>
<path d="M5.22467 1.35086V2.77403V5.05427V5.57657C5.34211 5.45914 5.45778 5.34346 5.57523 5.22602H4.15205H1.87182H1.34952C1.16548 5.22602 0.990213 5.38726 0.998962 5.57657C1.00773 5.76586 1.1532 5.92712 1.34952 5.92712H2.77269H5.05292H5.57523C5.76452 5.92712 5.92578 5.76588 5.92578 5.57657V4.1534V1.87316V1.35086C5.92578 1.16682 5.76454 0.991554 5.57523 1.0003C5.38594 1.00731 5.22467 1.15279 5.22467 1.35086Z" fill="#5B5151" stroke="#5B5151" stroke-width="0.3"/>
<path d="M11.9986 1.35086V2.77403V5.05427V5.57657C11.9986 5.76586 12.1599 5.92712 12.3492 5.92712H13.7724H16.0526H16.5749C16.7589 5.92712 16.9342 5.76588 16.9255 5.57657C16.9167 5.38728 16.7712 5.22602 16.5749 5.22602H15.1517H12.8715H12.3492C12.4666 5.34345 12.5823 5.45912 12.6998 5.57657V4.1534V1.87316V1.35086C12.6998 1.16682 12.5385 0.991554 12.3492 1.0003C12.1599 1.00731 11.9986 1.15279 11.9986 1.35086Z" fill="#5B5151" stroke="#5B5151" stroke-width="0.3"/>
<path d="M5.92578 16.6512V15.228V12.9478V12.4255C5.92578 12.2362 5.76454 12.0749 5.57523 12.0749H4.15205H1.87182H1.34952C1.16548 12.0749 0.990213 12.2362 0.998962 12.4255C1.00773 12.6148 1.1532 12.7761 1.34952 12.7761H2.77269H5.05292H5.57523C5.4578 12.6586 5.34212 12.5429 5.22467 12.4255V13.8487V16.1289V16.6512C5.22467 16.8352 5.38592 17.0105 5.57523 17.0018C5.76452 16.9948 5.92578 16.8493 5.92578 16.6512Z" fill="#5B5151" stroke="#5B5151" stroke-width="0.3"/>
<path d="M12.774 16.6512V15.228V12.9478V12.4255C12.6565 12.5429 12.5409 12.6586 12.4234 12.7761H13.8466H16.1268H16.6491C16.8332 12.7761 17.0084 12.6148 16.9997 12.4255C16.9909 12.2362 16.8454 12.0749 16.6491 12.0749H15.226H12.9457H12.4234C12.2341 12.0749 12.0729 12.2362 12.0729 12.4255V13.8487V16.1289V16.6512C12.0729 16.8352 12.2341 17.0105 12.4234 17.0018C12.6127 16.9948 12.774 16.8493 12.774 16.6512Z" fill="#5B5151" stroke="#5B5151" stroke-width="0.3"/>
</svg>
