<svg width="18" height="18" viewBox="0 0 18 18" fill="none" xmlns="http://www.w3.org/2000/svg">
<path d="M16.8973 16.4028C16.7606 16.2661 16.6239 16.1293 16.4872 15.9926L15.3725 14.8779C14.8221 14.3276 14.2735 13.779 13.7232 13.2286C13.0554 12.5591 12.3876 11.8913 11.7181 11.2218C10.9855 10.4892 10.2546 9.75833 9.52203 9.02572C8.78063 8.28433 8.03924 7.54293 7.29961 6.8033C6.60905 6.11274 5.91848 5.42218 5.22619 4.72988C4.64254 4.14624 4.0589 3.56259 3.47525 2.97894C3.0581 2.56179 2.64098 2.14467 2.22383 1.72752C2.02402 1.52771 1.82597 1.32966 1.62617 1.12987C1.61741 1.1211 1.60865 1.11234 1.59988 1.10358C1.47018 0.973876 1.23183 0.963361 1.10386 1.10358C0.975886 1.24379 0.965396 1.46112 1.10386 1.5996C1.24057 1.73631 1.37728 1.87302 1.51399 2.00973L2.62869 3.12443C3.17904 3.67478 3.72763 4.22337 4.27797 4.77372C4.94575 5.44149 5.61529 6.11103 6.28303 6.77878C7.01564 7.51139 7.74652 8.24227 8.47914 8.97488C9.22053 9.71627 9.96192 10.4577 10.7016 11.1973C11.3921 11.8879 12.0827 12.5784 12.775 13.2707C13.3586 13.8544 13.9423 14.438 14.5259 15.0217C14.9431 15.4388 15.3602 15.8559 15.7773 16.2731C15.9771 16.4729 16.1752 16.6709 16.375 16.8707C16.3838 16.8795 16.3925 16.8883 16.4013 16.897C16.531 17.0267 16.7693 17.0372 16.8973 16.897C17.027 16.7586 17.0358 16.5412 16.8973 16.4028Z" fill="#5B5151" stroke="#5B5151" stroke-width="0.3"/>
<path d="M1.59728 16.8969C1.73399 16.7602 1.8707 16.6235 2.00741 16.4868L3.12212 15.3721C3.67246 14.8218 4.22105 14.2732 4.7714 13.7228C5.43917 13.055 6.10871 12.3855 6.77646 11.7178C7.50907 10.9852 8.23995 10.2543 8.97256 9.52166C9.71395 8.78027 10.4553 8.03887 11.195 7.29924C11.8855 6.60868 12.5761 5.91812 13.2684 5.22582C13.852 4.64218 14.4357 4.05853 15.0193 3.47488C15.4365 3.05773 15.8536 2.64061 16.2708 2.22346C16.4706 2.02365 16.6686 1.8256 16.8684 1.62581C16.8772 1.61704 16.8859 1.60828 16.8947 1.59952C17.0244 1.46982 17.0349 1.23146 16.8947 1.10349C16.7545 0.975519 16.5372 0.96503 16.3987 1.10349L13.2246 4.27761C12.5568 4.94715 11.889 5.61492 11.2195 6.28443C10.4869 7.01704 9.75601 7.74792 9.0234 8.48053C8.28201 9.22192 7.54061 9.96332 6.80098 10.7029C6.11042 11.3935 5.41986 12.0841 4.72756 12.7764C4.14392 13.36 3.56027 13.9437 2.97662 14.5273C2.55947 14.9445 2.14235 15.3616 1.7252 15.7787C1.52539 15.9785 1.32734 16.1766 1.12755 16.3764C1.11878 16.3851 1.11002 16.3939 1.10126 16.4027C0.971557 16.5324 0.961041 16.7707 1.10126 16.8987C1.24147 17.0267 1.4588 17.0354 1.59728 16.8969V16.8969Z" fill="#5B5151" stroke="#5B5151" stroke-width="0.3"/>
<path d="M1.70111 5.57627V4.15309V1.87286V1.35055C1.58368 1.46798 1.468 1.58366 1.35055 1.70111H2.77373H5.05396H5.57627C5.7603 1.70111 5.93557 1.53986 5.92682 1.35055C5.91806 1.16126 5.77258 1 5.57627 1H4.15309H1.87286H1.35055C1.16127 1 1 1.16125 1 1.35055V2.77373V5.05396V5.57627C1 5.7603 1.16125 5.93557 1.35055 5.92682C1.53984 5.91981 1.70111 5.77434 1.70111 5.57627Z" fill="#5B5151" stroke="#5B5151" stroke-width="0.3"/>
<path d="M16.9974 5.57627V4.15309V1.87286V1.35055C16.9974 1.16126 16.8362 1 16.6469 1H15.2237H12.9435H12.4212C12.2371 1 12.0619 1.16125 12.0706 1.35055C12.0794 1.53984 12.2249 1.70111 12.4212 1.70111H13.8444H16.1246H16.6469C16.5295 1.58368 16.4138 1.468 16.2963 1.35055V2.77373V5.05396V5.57627C16.2963 5.7603 16.4576 5.93557 16.6469 5.92682C16.8362 5.91981 16.9974 5.77434 16.9974 5.57627Z" fill="#5B5151" stroke="#5B5151" stroke-width="0.3"/>
<path d="M1 12.4258V13.849V16.1292V16.6515C1 16.8408 1.16125 17.0021 1.35055 17.0021H2.77373H5.05396H5.57627C5.7603 17.0021 5.93557 16.8408 5.92682 16.6515C5.91806 16.4622 5.77258 16.301 5.57627 16.301H4.15309H1.87286H1.35055C1.46798 16.4184 1.58366 16.5341 1.70111 16.6515V15.2284V12.9481V12.4258C1.70111 12.2418 1.53986 12.0665 1.35055 12.0753C1.16126 12.0823 1 12.2277 1 12.4258Z" fill="#5B5151" stroke="#5B5151" stroke-width="0.3"/>
<path d="M16.3002 12.4258V13.849V16.1292V16.6515C16.4177 16.5341 16.5334 16.4184 16.6508 16.301H15.2276H12.9474H12.4251C12.2411 16.301 12.0658 16.4622 12.0745 16.6515C12.0833 16.8408 12.2288 17.0021 12.4251 17.0021H13.8483H16.1285H16.6508C16.8401 17.0021 17.0014 16.8408 17.0014 16.6515V15.2284V12.9481V12.4258C17.0014 12.2418 16.8401 12.0665 16.6508 12.0753C16.4615 12.0823 16.3002 12.2277 16.3002 12.4258Z" fill="#5B5151" stroke="#5B5151" stroke-width="0.3"/>
</svg>
