<svg width="18" height="18" viewBox="0 0 18 18" fill="none" xmlns="http://www.w3.org/2000/svg">
<path d="M0.601562 2.99998C0.601562 2.36346 0.854419 1.75301 1.30451 1.30292C1.75459 0.852832 2.36504 0.599976 3.00156 0.599976H13.0564C13.6928 0.600112 14.3032 0.853057 14.7532 1.30318L16.6984 3.24838C17.1485 3.69836 17.4014 4.30871 17.4016 4.94518V15C17.4016 15.6365 17.1487 16.2469 16.6986 16.697C16.2485 17.1471 15.6381 17.4 15.0016 17.4H3.00156C2.36504 17.4 1.75459 17.1471 1.30451 16.697C0.854419 16.2469 0.601563 15.6365 0.601562 15V2.99998ZM3.00156 1.79998C2.6833 1.79998 2.37808 1.9264 2.15303 2.15145C1.92799 2.37649 1.80156 2.68172 1.80156 2.99998V15C1.80156 15.3182 1.92799 15.6235 2.15303 15.8485C2.37808 16.0735 2.6833 16.2 3.00156 16.2V10.8C3.00156 10.3226 3.1912 9.86475 3.52877 9.52718C3.86634 9.18962 4.32417 8.99998 4.80156 8.99998H13.2016C13.679 8.99998 14.1368 9.18962 14.4744 9.52718C14.8119 9.86475 15.0016 10.3226 15.0016 10.8V16.2C15.3198 16.2 15.625 16.0735 15.8501 15.8485C16.0751 15.6235 16.2016 15.3182 16.2016 15V4.94518C16.2015 4.62694 16.075 4.32177 15.85 4.09678L13.9048 2.15158C13.6798 1.92652 13.3746 1.80004 13.0564 1.79998H12.6016V4.79998C12.6016 5.27737 12.4119 5.7352 12.0744 6.07277C11.7368 6.41033 11.279 6.59998 10.8016 6.59998H6.00156C5.52417 6.59998 5.06634 6.41033 4.72877 6.07277C4.3912 5.7352 4.20156 5.27737 4.20156 4.79998V1.79998H3.00156ZM5.40156 1.79998V4.79998C5.40156 4.95911 5.46478 5.11172 5.5773 5.22424C5.68982 5.33676 5.84243 5.39998 6.00156 5.39998H10.8016C10.9607 5.39998 11.1133 5.33676 11.2258 5.22424C11.3383 5.11172 11.4016 4.95911 11.4016 4.79998V1.79998H5.40156ZM13.8016 16.2V10.8C13.8016 10.6408 13.7383 10.4882 13.6258 10.3757C13.5133 10.2632 13.3607 10.2 13.2016 10.2H4.80156C4.64243 10.2 4.48982 10.2632 4.3773 10.3757C4.26478 10.4882 4.20156 10.6408 4.20156 10.8V16.2H13.8016Z" fill="#E37D38"/>
</svg>
