<svg width="12" height="10" viewBox="0 0 12 10" fill="none" xmlns="http://www.w3.org/2000/svg">
<path d="M3 2C3 1.73478 3.10536 1.48043 3.29289 1.29289C3.48043 1.10536 3.73478 1 4 1C4.13261 1 4.25979 0.947322 4.35355 0.853553C4.44732 0.759785 4.5 0.632608 4.5 0.5C4.5 0.367392 4.44732 0.240215 4.35355 0.146447C4.25979 0.0526784 4.13261 0 4 0C3.46957 0 2.96086 0.210714 2.58579 0.585786C2.21071 0.960859 2 1.46957 2 2V3.5C2 3.76522 1.89464 4.01957 1.70711 4.20711C1.51957 4.39464 1.26522 4.5 1 4.5C0.867392 4.5 0.740215 4.55268 0.646447 4.64645C0.552678 4.74021 0.5 4.86739 0.5 5C0.5 5.13261 0.552678 5.25979 0.646447 5.35355C0.740215 5.44732 0.867392 5.5 1 5.5C1.26522 5.5 1.51957 5.60536 1.70711 5.79289C1.89464 5.98043 2 6.23478 2 6.5V8C2 8.53043 2.21071 9.03914 2.58579 9.41421C2.96086 9.78929 3.46957 10 4 10C4.13261 10 4.25979 9.94732 4.35355 9.85355C4.44732 9.75979 4.5 9.63261 4.5 9.5C4.5 9.36739 4.44732 9.24021 4.35355 9.14645C4.25979 9.05268 4.13261 9 4 9C3.73478 9 3.48043 8.89464 3.29289 8.70711C3.10536 8.51957 3 8.26522 3 8V6.5C2.99839 6.21527 2.93601 5.93416 2.81701 5.67547C2.69802 5.41679 2.52516 5.1865 2.31 5C2.52516 4.8135 2.69802 4.58321 2.81701 4.32453C2.93601 4.06584 2.99839 3.78473 3 3.5V2ZM11 4.5C10.7348 4.5 10.4804 4.39464 10.2929 4.20711C10.1054 4.01957 10 3.76522 10 3.5V2C10 1.46957 9.78929 0.960859 9.41421 0.585786C9.03914 0.210714 8.53043 0 8 0C7.86739 0 7.74021 0.0526784 7.64645 0.146447C7.55268 0.240215 7.5 0.367392 7.5 0.5C7.5 0.632608 7.55268 0.759785 7.64645 0.853553C7.74021 0.947322 7.86739 1 8 1C8.26522 1 8.51957 1.10536 8.70711 1.29289C8.89464 1.48043 9 1.73478 9 2V3.5C9.00161 3.78473 9.06399 4.06584 9.18299 4.32453C9.30198 4.58321 9.47484 4.8135 9.69 5C9.47484 5.1865 9.30198 5.41679 9.18299 5.67547C9.06399 5.93416 9.00161 6.21527 9 6.5V8C9 8.26522 8.89464 8.51957 8.70711 8.70711C8.51957 8.89464 8.26522 9 8 9C7.86739 9 7.74021 9.05268 7.64645 9.14645C7.55268 9.24021 7.5 9.36739 7.5 9.5C7.5 9.63261 7.55268 9.75979 7.64645 9.85355C7.74021 9.94732 7.86739 10 8 10C8.53043 10 9.03914 9.78929 9.41421 9.41421C9.78929 9.03914 10 8.53043 10 8V6.5C10 6.23478 10.1054 5.98043 10.2929 5.79289C10.4804 5.60536 10.7348 5.5 11 5.5C11.1326 5.5 11.2598 5.44732 11.3536 5.35355C11.4473 5.25979 11.5 5.13261 11.5 5C11.5 4.86739 11.4473 4.74021 11.3536 4.64645C11.2598 4.55268 11.1326 4.5 11 4.5Z" fill="#E37D38"/>
</svg>
