<svg width="16" height="16" viewBox="0 0 16 16" fill="none" xmlns="http://www.w3.org/2000/svg">
<path d="M5.2 4.79999C5.51826 4.79999 5.82348 4.67357 6.04853 4.44852C6.27357 4.22348 6.4 3.91825 6.4 3.59999C6.4 3.28173 6.27357 2.97651 6.04853 2.75147C5.82348 2.52642 5.51826 2.39999 5.2 2.39999C4.88174 2.39999 4.57652 2.52642 4.35147 2.75147C4.12643 2.97651 4 3.28173 4 3.59999C4 3.91825 4.12643 4.22348 4.35147 4.44852C4.57652 4.67357 4.88174 4.79999 5.2 4.79999V4.79999ZM5.2 8.79999C5.51826 8.79999 5.82348 8.67357 6.04853 8.44852C6.27357 8.22348 6.4 7.91825 6.4 7.59999C6.4 7.28173 6.27357 6.97651 6.04853 6.75147C5.82348 6.52642 5.51826 6.39999 5.2 6.39999C4.88174 6.39999 4.57652 6.52642 4.35147 6.75147C4.12643 6.97651 4 7.28173 4 7.59999C4 7.91825 4.12643 8.22348 4.35147 8.44852C4.57652 8.67357 4.88174 8.79999 5.2 8.79999V8.79999ZM6.4 11.6C6.4 11.9183 6.27357 12.2235 6.04853 12.4485C5.82348 12.6736 5.51826 12.8 5.2 12.8C4.88174 12.8 4.57652 12.6736 4.35147 12.4485C4.12643 12.2235 4 11.9183 4 11.6C4 11.2817 4.12643 10.9765 4.35147 10.7515C4.57652 10.5264 4.88174 10.4 5.2 10.4C5.51826 10.4 5.82348 10.5264 6.04853 10.7515C6.27357 10.9765 6.4 11.2817 6.4 11.6ZM10.8 4.79999C11.1183 4.79999 11.4235 4.67357 11.6485 4.44852C11.8736 4.22348 12 3.91825 12 3.59999C12 3.28173 11.8736 2.97651 11.6485 2.75147C11.4235 2.52642 11.1183 2.39999 10.8 2.39999C10.4817 2.39999 10.1765 2.52642 9.95147 2.75147C9.72643 2.97651 9.6 3.28173 9.6 3.59999C9.6 3.91825 9.72643 4.22348 9.95147 4.44852C10.1765 4.67357 10.4817 4.79999 10.8 4.79999ZM12 7.59999C12 7.91825 11.8736 8.22348 11.6485 8.44852C11.4235 8.67357 11.1183 8.79999 10.8 8.79999C10.4817 8.79999 10.1765 8.67357 9.95147 8.44852C9.72643 8.22348 9.6 7.91825 9.6 7.59999C9.6 7.28173 9.72643 6.97651 9.95147 6.75147C10.1765 6.52642 10.4817 6.39999 10.8 6.39999C11.1183 6.39999 11.4235 6.52642 11.6485 6.75147C11.8736 6.97651 12 7.28173 12 7.59999ZM10.8 12.8C11.1183 12.8 11.4235 12.6736 11.6485 12.4485C11.8736 12.2235 12 11.9183 12 11.6C12 11.2817 11.8736 10.9765 11.6485 10.7515C11.4235 10.5264 11.1183 10.4 10.8 10.4C10.4817 10.4 10.1765 10.5264 9.95147 10.7515C9.72643 10.9765 9.6 11.2817 9.6 11.6C9.6 11.9183 9.72643 12.2235 9.95147 12.4485C10.1765 12.6736 10.4817 12.8 10.8 12.8Z" fill="#5B5151"/>
</svg>
